<svg width="1440" height="361" viewBox="0 0 1440 361" fill="none" xmlns="http://www.w3.org/2000/svg">
<path d="M1416.14 357.622L1404.95 360.251M1416.14 357.622H1382.99M1416.14 357.622L1427.69 354.906M1416.14 357.622H1439.61M1404.95 360.251L1409.02 360.25L1413.05 360.244L1416.99 360.228L1420.81 360.197L1424.47 360.145L1427.92 360.068L1431.12 359.961L1434.1 359.825L1436.65 359.636L1438.97 359.418L1439.61 359.341V357.622M1404.95 360.251H1372.33M1372.33 360.251H1339.72M1372.33 360.251L1382.99 357.622M1339.72 360.251H1307.1M1339.72 360.251L1349.84 357.622M1307.1 360.251H1274.48M1307.1 360.251L1316.69 357.622M1274.48 360.251H1241.87M1274.48 360.251L1283.54 357.622M1241.87 360.251H1209.25M1241.87 360.251L1250.39 357.622M1209.25 360.251H1176.63M1209.25 360.251L1217.24 357.622M1176.63 360.251H1144.02M1176.63 360.251L1184.09 357.622M1144.02 360.251H1111.4M1144.02 360.251L1150.94 357.622M1111.4 360.251H1078.78M1111.4 360.251L1117.79 357.622M1078.78 360.251H1046.17M1078.78 360.251L1084.64 357.622M1046.17 360.251H1013.55M1046.17 360.251L1051.49 357.622M1013.55 360.251H980.933M1013.55 360.251L1014.73 359.601L1016.53 358.618L1018.34 357.622M980.933 360.251H948.317M980.933 360.251L981.985 359.601L985.194 357.622M948.317 360.251H915.7M948.317 360.251L952.045 357.622M915.7 360.251H883.083M915.7 360.251L916.886 359.275L918.088 358.287L918.491 357.955L918.896 357.622M883.083 360.251H850.467M883.083 360.251L884.072 359.275L884.404 358.947L884.738 358.618L885.747 357.622M850.467 360.251H817.85M850.467 360.251L852.598 357.622M817.85 360.251L818.047 359.927L818.244 359.601L819.245 357.955L819.448 357.622M817.85 360.251H785.234M785.234 360.251H752.616M785.234 360.251L786.299 357.622M752.616 360.251H720M752.616 360.251L752.814 359.275L753.149 357.622M720 360.251H687.384M720 360.251V357.622M687.384 360.251H654.766M687.384 360.251L687.186 359.275L686.851 357.622M654.766 360.251H622.15M654.766 360.251L653.701 357.622M622.15 360.251L621.953 359.927L621.756 359.601L620.755 357.955L620.552 357.622M622.15 360.251H589.534M589.534 360.251H556.916M589.534 360.251L587.673 357.955L587.402 357.622M556.916 360.251H524.3M556.916 360.251L555.928 359.275L555.596 358.947L554.927 358.287L554.591 357.955L554.253 357.622M524.3 360.251H491.683M524.3 360.251L523.114 359.275L521.912 358.287L521.509 357.955L521.104 357.622M491.683 360.251H459.067M491.683 360.251L487.955 357.622M459.067 360.251H426.45M459.067 360.251L458.015 359.601L454.806 357.622M426.45 360.251H393.833M426.45 360.251L421.656 357.622M393.833 360.251H361.217M393.833 360.251L388.507 357.622M361.217 360.251H328.6M361.217 360.251L355.357 357.622M328.6 360.251H295.983M328.6 360.251L322.208 357.622M295.983 360.251H263.367M295.983 360.251L289.059 357.622M263.367 360.251H230.75M263.367 360.251L255.909 357.622M230.75 360.251H198.133M230.75 360.251L222.76 357.622M198.133 360.251H165.517M198.133 360.251L189.61 357.622M165.517 360.251H132.9M165.517 360.251L156.461 357.622M132.9 360.251H100.283M132.9 360.251L123.312 357.622M100.283 360.251H67.6668M100.283 360.251L90.163 357.622M67.6668 360.251H35.0504M67.6668 360.251L57.0136 357.622M35.0504 360.251L30.9801 360.25L26.9517 360.244L23.0074 360.228L19.1867 360.197L15.5316 360.145L12.0812 360.068L8.87672 359.961L5.90232 359.825L3.34995 359.636L1.0262 359.418L0.387546 359.341V357.622M35.0504 360.251L23.8641 357.622M90.163 357.622H123.312M90.163 357.622H57.0136M90.163 357.622L79.7053 354.906M123.312 357.622L113.405 354.906M123.312 357.622H156.461M222.76 357.622H255.909M222.76 357.622H189.61M222.76 357.622L220.722 356.951L214.504 354.906M255.909 357.622L248.204 354.906M255.909 357.622H289.059M355.357 357.622H388.507M355.357 357.622H322.208M355.357 357.622L353.863 356.951L353.11 356.614L349.303 354.906M388.507 357.622L387.828 357.287L387.148 356.951L383.003 354.906M388.507 357.622H421.656M487.955 357.622L487.48 357.287L484.102 354.906M487.955 357.622H521.104M487.955 357.622H454.806M521.104 357.622L520.289 356.951L519.878 356.614L519.467 356.275L517.802 354.906M521.104 357.622H554.253M620.552 357.622H653.701M620.552 357.622H587.402M620.552 357.622L618.901 354.906M653.701 357.622L653.566 357.287L653.43 356.951L653.293 356.614L652.879 355.594L652.601 354.906M653.701 357.622H686.851M753.149 357.622H786.299M753.149 357.622H720M753.149 357.622L753.7 354.906M786.299 357.622L786.434 357.287L786.57 356.951L786.707 356.614L787.399 354.906M786.299 357.622H819.448M885.747 357.622H918.896M885.747 357.622H852.598M885.747 357.622L886.426 356.951L887.802 355.594L888.149 355.251L888.499 354.906M918.896 357.622L919.711 356.951L920.122 356.614L920.533 356.275L922.198 354.906M918.896 357.622H952.045M1018.34 357.622H1051.49M1018.34 357.622H985.194M1018.34 357.622L1019.57 356.951L1020.18 356.614L1023.3 354.906M1051.49 357.622L1052.17 357.287L1052.85 356.951L1057 354.906M1051.49 357.622H1084.64M1150.94 357.622H1184.09M1150.94 357.622H1117.79M1150.94 357.622L1152.71 356.951L1153.6 356.614L1158.1 354.906M1184.09 357.622L1191.8 354.906M1184.09 357.622H1217.24M1283.54 357.622H1316.69M1283.54 357.622H1250.39M1283.54 357.622L1292.89 354.906M1316.69 357.622L1326.6 354.906M1316.69 357.622H1349.84M0.271359 333.036H0.387546M33.6366 333.036L46.2928 336.506M33.6366 333.036L20.4955 329.434M33.6366 333.036H71.7679M33.6366 333.036H0.387546M46.2928 336.506H8.86473M46.2928 336.506L58.491 339.85M46.2928 336.506H83.7209M8.86473 336.506L21.7405 339.85M8.86473 336.506H0.387546M8.86473 336.506L0.387546 334.305M46.1414 346.188H81.6078M46.1414 346.188L57.7137 349.194M46.1414 346.188H10.6758M46.1414 346.188L34.1576 343.076M81.6078 346.188L92.5714 349.194M81.6078 346.188L70.2552 343.076M81.6078 346.188H117.074M57.7137 349.194H92.5714M57.7137 349.194L68.8954 352.098M57.7137 349.194H22.8567M92.5714 349.194H127.428M92.5714 349.194L103.164 352.098M0.0224927 278.269H0.387546M30.7904 278.269L47.1106 284.022M30.7904 278.269L13.6591 272.23M30.7904 278.269H80.0202M30.7904 278.269H0.387546M47.1106 284.022L62.676 289.508M47.1106 284.022H95.174M47.1106 284.022H0.387546M15.7243 289.508H62.676M15.7243 289.508L31.6472 294.747M15.7243 289.508H0.387546M15.7243 289.508L0.387546 284.463M46.8655 299.754H91.7409M46.8655 299.754L61.4257 304.544M46.8655 299.754H1.99018M46.8655 299.754L31.6472 294.747M91.7409 299.754L105.331 304.544M91.7409 299.754L77.5367 294.747M91.7409 299.754H136.617M61.4257 304.544H105.331M61.4257 304.544H17.5211M61.4257 304.544L75.3697 309.131M105.331 304.544L118.345 309.131M105.331 304.544H149.236M101.558 317.747H142.787M101.558 317.747L113.87 321.798M101.558 317.747H60.3283M101.558 317.747L88.735 313.528M142.787 317.747L154.278 321.798M142.787 317.747L130.82 313.528M142.787 317.747H184.017M113.87 321.798H154.278M113.87 321.798H73.4612M113.87 321.798L125.701 325.69M154.278 321.798L165.321 325.69M154.278 321.798H194.687M148.03 333.036H186.161M148.03 333.036L158.577 336.506M148.03 333.036H109.899M148.03 333.036L137.079 329.434M186.161 333.036L196.005 336.506M186.161 333.036L175.941 329.434M186.161 333.036H224.293M158.577 336.506H196.005M158.577 336.506H121.149M158.577 336.506L168.742 339.85M196.005 336.506L205.493 339.85M196.005 336.506H233.433M188.006 346.188H223.473M188.006 346.188L197.142 349.194M188.006 346.188H152.541M188.006 346.188L178.546 343.076M223.473 346.188L231.999 349.194M223.473 346.188L214.642 343.076M223.473 346.188H258.939M197.142 349.194H231.999M197.142 349.194L205.97 352.098M197.142 349.194H162.285M231.999 349.194H266.857M231.999 349.194L240.239 352.098M25.6092 178.535L48.5783 189.87M25.6092 178.535L1.01196 166.396M25.6092 178.535H95.0481M25.6092 178.535H0.387546M48.5783 189.87L70.0775 200.479M48.5783 189.87H115.72M48.5783 189.87H0.387546M48.1121 219.783H109.193M48.1121 219.783L67.7403 228.588M48.1121 219.783L27.2658 210.43M48.1121 219.783H0.387546M109.193 219.783L127.036 228.588M109.193 219.783L90.2417 210.43M109.193 219.783H170.274M67.7403 228.588H127.036M67.7403 228.588H8.44421M67.7403 228.588L86.2546 236.895M127.036 228.588L143.868 236.895M127.036 228.588H186.333M120.298 252.168H174.817M120.298 252.168L135.985 259.205M120.298 252.168H65.7801M120.298 252.168L103.746 244.742M174.817 252.168L189.077 259.205M174.817 252.168L159.769 244.742M174.817 252.168H229.335M135.985 259.205H189.077M135.985 259.205H82.8926M135.985 259.205L150.871 265.884M189.077 259.205L202.611 265.884M189.077 259.205H242.169M178.478 278.269H227.708M178.478 278.269L191.301 284.022M178.478 278.269H129.249M178.478 278.269L165.018 272.23M227.708 278.269L239.365 284.022M227.708 278.269L215.471 272.23M227.708 278.269H276.937M191.301 284.022H239.365M191.301 284.022H143.238M191.301 284.022L203.531 289.508M239.365 284.022L250.483 289.508M239.365 284.022H287.428M226.368 299.754H271.244M226.368 299.754L237.046 304.544M226.368 299.754H181.492M226.368 299.754L215.208 294.747M271.244 299.754L280.951 304.544M271.244 299.754L261.098 294.747M271.244 299.754H316.119M237.046 304.544H280.951M237.046 304.544H193.141M237.046 304.544L247.271 309.131M280.951 304.544L290.247 309.131M280.951 304.544H324.856M266.475 317.747H307.705M266.475 317.747L275.504 321.798M266.475 317.747H225.246M266.475 317.747L257.073 313.528M307.705 317.747L308.75 318.262L315.913 321.798M307.705 317.747L299.157 313.528M307.705 317.747H348.935M275.504 321.798H315.913M275.504 321.798H235.096M275.504 321.798L284.181 325.69M315.913 321.798L323.801 325.69M315.913 321.798H356.322M300.555 333.036H338.687M300.555 333.036L308.29 336.506M300.555 333.036H262.424M300.555 333.036L292.525 329.434M338.687 333.036L345.718 336.506M338.687 333.036L335.982 331.701L331.386 329.434M338.687 333.036H376.818M308.29 336.506H345.718M308.29 336.506H270.862M308.29 336.506L315.744 339.85M345.718 336.506L352.495 339.85M345.718 336.506H383.146M329.871 346.188H365.337M329.871 346.188L336.571 349.194M329.871 346.188H294.405M329.871 346.188L322.934 343.076M365.337 346.188L369.926 348.452L370.678 348.824L371.429 349.194M365.337 346.188L359.03 343.076M365.337 346.188H400.804M336.571 349.194H371.429M336.571 349.194L343.045 352.098M336.571 349.194H301.714M371.429 349.194H406.286M371.429 349.194L377.313 352.098M50.7679 49.4101H146.373M50.7679 49.4101L80.8717 70.6329M50.7679 49.4101L17.6882 26.089M50.7679 49.4101L0.387546 49.4097M146.373 49.4101L172.176 70.6329M146.373 49.4101L118.019 26.089M146.373 49.4101H241.977M80.8717 70.6329H172.176M80.8717 70.6329L108.384 90.0285M80.8717 70.6329H0.387546M172.176 70.6329L195.758 90.0285M172.176 70.6329H263.48M156.866 124.208H237.314M156.866 124.208L178.334 139.343M156.866 124.208H76.4183M156.866 124.208L133.625 107.823M237.314 124.208L255.715 139.343M237.314 124.208L217.393 107.823M237.314 124.208H317.761M178.334 139.343H255.715M178.334 139.343H100.953M178.334 139.343L198.226 153.366M255.715 139.343L272.765 153.366M255.715 139.343H333.096M233.927 178.535H303.365M233.927 178.535L250.005 189.87M233.927 178.535H164.487M233.927 178.535L216.708 166.396M303.365 178.535L317.147 189.87M303.365 178.535L288.607 166.396M303.365 178.535H372.804M250.005 189.87H317.147M250.005 189.87H182.863M250.005 189.87L265.054 200.479M317.147 189.87L330.046 200.479M317.147 189.87H384.29M292.435 219.783H353.516M292.435 219.783L304.926 228.588M292.435 219.783H231.355M292.435 219.783L279.169 210.43M353.516 219.783L364.222 228.588M353.516 219.783L342.145 210.43M353.516 219.783H414.596M304.926 228.588H364.222M304.926 228.588H245.629M304.926 228.588L316.707 236.895M364.222 228.588L374.321 236.895M364.222 228.588H423.518M338.372 252.168H392.89M338.372 252.168L348.354 259.205M338.372 252.168H283.853M338.372 252.168L327.838 244.742M392.89 252.168L401.446 259.205M392.89 252.168L383.862 244.742M392.89 252.168H447.409M348.354 259.205H401.446M348.354 259.205H295.261M348.354 259.205L357.827 265.884M401.446 259.205L409.566 265.884M401.446 259.205H454.539M375.396 278.269H424.625M375.396 278.269L383.556 284.022M375.396 278.269H326.166M375.396 278.269L366.83 272.23M424.625 278.269L431.619 284.022M424.625 278.269L417.282 272.23M424.625 278.269H473.854M383.556 284.022H431.619M383.556 284.022H335.492M383.556 284.022L391.338 289.508M431.619 284.022L438.29 289.508M431.619 284.022H479.682M405.87 299.754H450.747M405.87 299.754L412.666 304.544M405.87 299.754H360.995M405.87 299.754L398.769 294.747M450.747 299.754L456.57 304.544M450.747 299.754L444.659 294.747M450.747 299.754H495.622M412.666 304.544H456.57M412.666 304.544H368.76M412.666 304.544L419.173 309.131M456.57 304.544L462.148 309.131M456.57 304.544H500.475M431.393 317.747H472.623M431.393 317.747L437.139 321.798M431.393 317.747H390.164M431.393 317.747L425.409 313.528M472.623 317.747L471.993 317.229L467.494 313.528M472.623 317.747L477.548 321.798M472.623 317.747H513.853M437.139 321.798H477.548M437.139 321.798H396.731M437.139 321.798L442.661 325.69M477.548 321.798L482.281 325.69M477.548 321.798H517.957M453.081 333.036H491.212M453.081 333.036L458.003 336.506M453.081 333.036H414.95M453.081 333.036L447.971 329.434M491.212 333.036L495.431 336.506M491.212 333.036L489.589 331.701L488.494 330.8L486.832 329.434M491.212 333.036H529.343M458.003 336.506H495.431M458.003 336.506H420.575M458.003 336.506L462.746 339.85M495.431 336.506L496.973 337.775L497.99 338.611L499.497 339.85M495.431 336.506H532.859M471.737 346.188H507.202M471.737 346.188L474.948 348.452L476 349.194M471.737 346.188H436.27M471.737 346.188L467.882 343.471L467.322 343.076M507.202 346.188L509.956 348.452L510.407 348.824L510.857 349.194M507.202 346.188L505.327 344.646L503.418 343.076M507.202 346.188H542.669M476 349.194H510.857M476 349.194L480.119 352.098M476 349.194H441.143M510.857 349.194H545.714M510.857 349.194L514.388 352.098M433.186 49.4101H528.791M433.186 49.4101L446.088 70.6329M433.186 49.4101H337.582M433.186 49.4101L419.009 26.089M528.791 49.4101L537.392 70.6329M528.791 49.4101L519.34 26.089M528.791 49.4101H624.396M446.088 70.6329H537.392M446.088 70.6329H354.784M446.088 70.6329L457.879 90.0285M537.392 70.6329L545.253 90.0285M537.392 70.6329H628.696M478.657 124.208H559.104M478.657 124.208L487.858 139.343M478.657 124.208H398.209M478.657 124.208L468.696 107.823M559.104 124.208L565.238 139.343M559.104 124.208L552.465 107.823M559.104 124.208H639.553M487.858 139.343H565.238M487.858 139.343H410.477M487.858 139.343L496.383 153.366M565.238 139.343L570.922 153.366M565.238 139.343H642.619M511.683 178.535H581.122M511.683 178.535L518.574 189.87M511.683 178.535H442.244M511.683 178.535L504.304 166.396M581.122 178.535L585.716 189.87M581.122 178.535L576.203 166.396M581.122 178.535H650.561M518.574 189.87H585.716M518.574 189.87H451.432M518.574 189.87L525.023 200.479M585.716 189.87L590.016 200.479M585.716 189.87H652.858M536.758 219.783H597.838M536.758 219.783L542.111 228.588M536.758 219.783H475.677M536.758 219.783L531.073 210.43M597.838 219.783L601.407 228.588M597.838 219.783L594.048 210.43M597.838 219.783H658.919M542.111 228.588H601.407M542.111 228.588H482.815M542.111 228.588L547.16 236.895M601.407 228.588L604.774 236.895M601.407 228.588H660.704M556.445 252.168H610.964M556.445 252.168L560.723 259.205M556.445 252.168H501.927M556.445 252.168L551.931 244.742M610.964 252.168L613.815 259.205M610.964 252.168L607.954 244.742M610.964 252.168H665.482M560.723 259.205H613.815M560.723 259.205H507.631M560.723 259.205L564.783 265.884M613.815 259.205L616.522 265.884M613.815 259.205H666.908M572.312 278.269H621.541M572.312 278.269L575.809 284.022M572.312 278.269H523.083M572.312 278.269L568.642 272.23M621.541 278.269L623.873 284.022M621.541 278.269L619.094 272.23M621.541 278.269H670.771M575.809 284.022H623.873M575.809 284.022H527.746M575.809 284.022L577.079 286.109L579.145 289.508M623.873 284.022L626.097 289.508M623.873 284.022H671.937M585.373 299.754H630.249M585.373 299.754L588.285 304.544M585.373 299.754H540.497M585.373 299.754L583.104 296.019L582.329 294.747M630.249 299.754L630.987 301.575L632.19 304.544M630.249 299.754L628.219 294.747M630.249 299.754H675.125M588.285 304.544L588.64 305.128L591.074 309.131M588.285 304.544H632.19M588.285 304.544H544.38M632.19 304.544L632.897 306.287L633.129 306.862L633.362 307.434L634.049 309.131M632.19 304.544H676.095M596.311 317.747H637.541M596.311 317.747L597.555 319.793L597.862 320.297L598.167 320.8L598.472 321.3L598.774 321.798M596.311 317.747H555.082M596.311 317.747L593.747 313.528M637.541 317.747L638.778 320.8L638.981 321.3L639.182 321.798M637.541 317.747L635.832 313.528M637.541 317.747H678.771M598.774 321.798H639.182M598.774 321.798H558.365M598.774 321.798L600.264 324.248L600.557 324.731L601.14 325.69M639.182 321.798L640.176 324.248L640.372 324.731L640.566 325.212L640.76 325.69M639.182 321.798H679.592M605.606 333.036H643.738M605.606 333.036L607.716 336.506M605.606 333.036H567.474M605.606 333.036L605.066 332.148L604.247 330.8L603.416 329.434M643.738 333.036L643.558 332.593L642.463 329.891L642.277 329.434M643.738 333.036L645.144 336.506M643.738 333.036H681.869M607.716 336.506H645.144M607.716 336.506H570.288M607.716 336.506L609.749 339.85M645.144 336.506L645.658 337.775L645.827 338.194L645.997 338.611L646.499 339.85M645.144 336.506H682.572M613.602 346.188H649.067M613.602 346.188L614.978 348.452L615.428 349.194M613.602 346.188H578.135M613.602 346.188L612.899 345.034L612.664 344.646L612.426 344.256L611.709 343.076M649.067 346.188L649.222 346.57L649.529 347.328L649.834 348.079L650.285 349.194M649.067 346.188L648.442 344.646L648.285 344.256L647.966 343.471L647.806 343.076M649.067 346.188H684.534M615.428 349.194H650.285M615.428 349.194L616.976 351.74L617.194 352.098M615.428 349.194H580.571M650.285 349.194L650.435 349.562L650.584 349.929L650.732 350.295L650.879 350.658L651.318 351.74L651.463 352.098M650.285 349.194H685.143M815.604 49.4101H911.209M815.604 49.4101L811.304 70.6329M815.604 49.4101H720M815.604 49.4101L820.33 26.089M911.209 49.4101L902.608 70.6329M911.209 49.4101L920.66 26.089M911.209 49.4101H1006.81M811.304 70.6329H902.608M811.304 70.6329H720M811.304 70.6329L807.374 90.0285M902.608 70.6329L894.747 90.0285M902.608 70.6329H993.912M800.447 124.208H880.896M800.447 124.208L797.381 139.343M800.447 124.208H720M800.447 124.208L803.768 107.823M880.896 124.208L874.762 139.343M880.896 124.208L887.536 107.823M880.896 124.208H961.343M797.381 139.343H874.762M797.381 139.343H720M797.381 139.343L794.539 153.366M874.762 139.343L869.078 153.366M874.762 139.343H952.142M789.439 178.535H858.878M789.439 178.535L787.142 189.87M789.439 178.535H720M789.439 178.535L791.899 166.396M858.878 178.535L854.284 189.87M858.878 178.535L863.797 166.396M858.878 178.535H928.317M787.142 189.87H854.284M787.142 189.87H720M787.142 189.87L784.992 200.479M854.284 189.87L849.984 200.479M854.284 189.87H921.426M781.081 219.783H842.162M781.081 219.783L779.296 228.588M781.081 219.783H720M781.081 219.783L782.976 210.43M842.162 219.783L838.593 228.588M842.162 219.783L845.952 210.43M842.162 219.783H903.242M779.296 228.588H838.593M779.296 228.588H720M779.296 228.588L777.613 236.895M838.593 228.588L835.226 236.895M838.593 228.588H897.889M774.518 252.168H829.036M774.518 252.168L773.092 259.205M774.518 252.168H720M774.518 252.168L776.023 244.742M829.036 252.168L826.185 259.205M829.036 252.168L832.046 244.742M829.036 252.168H883.555M773.092 259.205H826.185M773.092 259.205H720M773.092 259.205L771.739 265.884M826.185 259.205L823.478 265.884M826.185 259.205H879.277M769.229 278.269H818.459M769.229 278.269L768.063 284.022M769.229 278.269H720M769.229 278.269L770.453 272.23M818.459 278.269L816.127 284.022M818.459 278.269L820.906 272.23M818.459 278.269H867.688M768.063 284.022H816.127M768.063 284.022H720M768.063 284.022L766.952 289.508M816.127 284.022L813.903 289.508M816.127 284.022H864.191M764.875 299.754H809.751M764.875 299.754L763.905 304.544M764.875 299.754H720M764.875 299.754L765.89 294.747M809.751 299.754L808.048 303.956L807.81 304.544M809.751 299.754L811.781 294.747M809.751 299.754H854.627M763.905 304.544L763.787 305.128L762.975 309.131M763.905 304.544H807.81M763.905 304.544H720M807.81 304.544L807.103 306.287L806.871 306.862L806.638 307.434L805.951 309.131M807.81 304.544H851.715M761.229 317.747H802.459M761.229 317.747L760.408 321.798M761.229 317.747H720M761.229 317.747L761.546 316.185L761.653 315.659L761.759 315.131L761.975 314.065L762.085 313.528M802.459 317.747L801.222 320.8L800.817 321.798M802.459 317.747L804.168 313.528M802.459 317.747H843.689M760.408 321.798H800.817M760.408 321.798H720M760.408 321.798L759.62 325.69M800.817 321.798L799.824 324.248L799.628 324.731L799.434 325.212L799.24 325.69M800.817 321.798H841.226M758.131 333.036H796.262M758.131 333.036L757.428 336.506M758.131 333.036H720M758.131 333.036L758.861 329.434M796.262 333.036L796.442 332.593L797.537 329.891L797.723 329.434M796.262 333.036L794.856 336.506M796.262 333.036H834.394M757.428 336.506H794.856M757.428 336.506H720M757.428 336.506L756.75 339.85M794.856 336.506L794.342 337.775L794.172 338.194L794.003 338.611L793.501 339.85M794.856 336.506H832.284M755.467 346.188H790.933M755.467 346.188L754.857 349.194M755.467 346.188H720M755.467 346.188L756.097 343.076M790.933 346.188L790.778 346.57L790.47 347.328L790.318 347.704L790.015 348.452L789.865 348.824L789.714 349.194M790.933 346.188L791.558 344.646L791.715 344.256L792.034 343.471L792.194 343.076M790.933 346.188H826.398M754.857 349.194L754.783 349.562L754.708 349.929L754.634 350.295L754.269 352.098M754.857 349.194H789.714M754.857 349.194H720M789.714 349.194H824.572M789.714 349.194L789.416 349.929L789.268 350.295L789.121 350.658L788.682 351.74L788.537 352.098M1198.02 49.4101H1293.63M1198.02 49.4101L1176.52 70.6329M1198.02 49.4101H1102.42M1198.02 49.4101L1221.65 26.089M1293.63 49.4101L1267.82 70.6329M1293.63 49.4101L1321.98 26.089M1293.63 49.4101H1389.23M1176.52 70.6329H1267.82M1176.52 70.6329H1085.22M1176.52 70.6329L1156.87 90.0285M1267.82 70.6329L1244.24 90.0285M1267.82 70.6329H1359.13M1122.24 124.208H1202.69M1122.24 124.208L1106.9 139.343M1122.24 124.208H1041.79M1122.24 124.208L1138.84 107.823M1202.69 124.208L1184.28 139.343M1202.69 124.208L1222.61 107.823M1202.69 124.208H1283.13M1106.9 139.343H1184.28M1106.9 139.343H1029.52M1106.9 139.343L1092.7 153.366M1184.28 139.343L1167.23 153.366M1184.28 139.343H1261.67M1067.2 178.535H1136.63M1067.2 178.535L1055.71 189.87M1067.2 178.535H997.756M1067.2 178.535L1079.49 166.396M1136.63 178.535L1122.85 189.87M1136.63 178.535L1151.39 166.396M1136.63 178.535H1206.07M1055.71 189.87H1122.85M1055.71 189.87H988.568M1055.71 189.87L1044.96 200.479M1122.85 189.87L1109.95 200.479M1122.85 189.87H1189.99M1025.4 219.783H1086.48M1025.4 219.783L1016.48 228.588M1025.4 219.783H964.323M1025.4 219.783L1034.88 210.43M1086.48 219.783L1075.78 228.588M1086.48 219.783L1097.86 210.43M1086.48 219.783H1147.57M1016.48 228.588H1075.78M1016.48 228.588H957.185M1016.48 228.588L1008.07 236.895M1075.78 228.588L1065.68 236.895M1075.78 228.588H1135.07M992.591 252.168H1047.11M992.591 252.168L985.461 259.205M992.591 252.168H938.073M992.591 252.168L1000.12 244.742M1047.11 252.168L1038.55 259.205M1047.11 252.168L1056.14 244.742M1047.11 252.168H1101.63M985.461 259.205H1038.55M985.461 259.205H932.369M985.461 259.205L978.695 265.884M1038.55 259.205L1030.43 265.884M1038.55 259.205H1091.65M966.146 278.269H1015.38M966.146 278.269L960.317 284.022M966.146 278.269H916.917M966.146 278.269L972.265 272.23M1015.38 278.269L1008.38 284.022M1015.38 278.269L1022.72 272.23M1015.38 278.269H1064.6M960.317 284.022H1008.38M960.317 284.022H912.254M960.317 284.022L954.759 289.508M1008.38 284.022L1001.71 289.508M1008.38 284.022H1056.44M944.378 299.754L945 299.14L945.625 298.523L949.451 294.747M944.378 299.754H989.254M944.378 299.754L939.525 304.544M944.378 299.754H899.503M989.254 299.754L983.43 304.544M989.254 299.754L995.341 294.747M989.254 299.754H1034.13M939.525 304.544H983.43M939.525 304.544H895.62M939.525 304.544L934.877 309.131M983.43 304.544L977.852 309.131M983.43 304.544H1027.33M926.147 317.747H967.377M926.147 317.747L922.043 321.798M926.147 317.747H884.918M926.147 317.747L930.421 313.528M967.377 317.747L964.275 320.297L962.452 321.798M967.377 317.747L972.506 313.528M967.377 317.747H1008.61M922.043 321.798H962.452M922.043 321.798H881.635M922.043 321.798L918.585 325.212L918.1 325.69M962.452 321.798L957.72 325.69M962.452 321.798H1002.86M910.657 333.036H948.788M910.657 333.036L909.766 333.916L907.141 336.506M910.657 333.036H872.526M910.657 333.036L911.556 332.148L913.382 330.347L914.307 329.434M948.788 333.036L944.569 336.506M948.788 333.036L950.411 331.701L951.506 330.8L953.168 329.434M948.788 333.036H986.919M907.141 336.506H944.569M907.141 336.506H869.712M907.141 336.506L904.588 339.026L903.752 339.85M944.569 336.506L943.027 337.775L942.01 338.611L940.503 339.85M944.569 336.506H981.997M897.331 346.188H932.798M897.331 346.188L895.415 348.079L894.286 349.194M897.331 346.188H861.865M897.331 346.188L900.485 343.076M932.798 346.188L930.044 348.452L929.593 348.824L929.143 349.194M932.798 346.188L934.673 344.646L936.582 343.076M932.798 346.188H968.263M894.286 349.194H929.143M894.286 349.194L892.802 350.658L892.07 351.381L891.705 351.74L891.344 352.098M894.286 349.194H859.429M929.143 349.194H964M929.143 349.194L925.612 352.098M1416.43 139.343H1339.05M1416.43 139.343L1390.85 153.366M1416.43 139.343H1439.61M1416.43 139.343L1439.61 126.63M1344.95 178.535H1414.39M1344.95 178.535L1324.28 189.87M1344.95 178.535H1275.51M1344.95 178.535L1367.09 166.396M1414.39 178.535L1391.42 189.87M1414.39 178.535L1438.99 166.396M1414.39 178.535H1439.61M1324.28 189.87H1391.42M1324.28 189.87H1257.14M1324.28 189.87L1304.93 200.479M1391.42 189.87L1369.92 200.479M1391.42 189.87H1439.61M1269.73 219.783H1330.81M1269.73 219.783L1253.67 228.588M1269.73 219.783H1208.65M1269.73 219.783L1286.78 210.43M1330.81 219.783L1312.96 228.588M1330.81 219.783L1349.76 210.43M1330.81 219.783H1391.89M1253.67 228.588H1312.96M1253.67 228.588H1194.37M1253.67 228.588L1238.52 236.895M1312.96 228.588L1296.13 236.895M1312.96 228.588H1372.26M1210.66 252.168H1265.18M1210.66 252.168L1197.83 259.205M1210.66 252.168H1156.15M1210.66 252.168L1224.21 244.742M1265.18 252.168L1250.92 259.205M1265.18 252.168L1280.23 244.742M1265.18 252.168H1319.7M1197.83 259.205H1250.92M1197.83 259.205H1144.74M1197.83 259.205L1185.65 265.884M1250.92 259.205L1237.39 265.884M1250.92 259.205H1304.01M1163.06 278.269H1212.29M1163.06 278.269L1152.57 284.022M1163.06 278.269H1113.83M1163.06 278.269L1174.08 272.23M1212.29 278.269L1200.64 284.022M1212.29 278.269L1224.53 272.23M1212.29 278.269H1261.52M1152.57 284.022H1200.64M1152.57 284.022H1104.51M1152.57 284.022L1142.57 289.508M1200.64 284.022L1189.52 289.508M1200.64 284.022H1248.7M1123.88 299.754H1168.76M1123.88 299.754L1115.14 304.544M1123.88 299.754H1079M1123.88 299.754L1133.01 294.747M1168.76 299.754L1159.05 304.544M1168.76 299.754L1178.9 294.747M1168.76 299.754H1213.63M1115.14 304.544H1159.05M1115.14 304.544H1071.24M1115.14 304.544L1106.78 309.131M1159.05 304.544L1149.75 309.131M1159.05 304.544H1202.95M1091.07 317.747H1132.29M1091.07 317.747L1083.68 321.798M1091.07 317.747H1049.84M1091.07 317.747L1098.76 313.528M1132.29 317.747L1124.09 321.798M1132.29 317.747L1140.84 313.528M1132.29 317.747H1173.52M1083.68 321.798H1124.09M1083.68 321.798H1043.27M1083.68 321.798L1076.58 325.69M1124.09 321.798L1116.2 325.69M1124.09 321.798H1164.5M1063.18 333.036H1101.31M1063.18 333.036L1056.85 336.506M1063.18 333.036H1025.05M1063.18 333.036L1064.8 332.148L1065.62 331.701L1069.75 329.434M1101.31 333.036L1094.28 336.506M1101.31 333.036L1108.61 329.434M1101.31 333.036H1139.44M1056.85 336.506H1094.28M1056.85 336.506H1019.43M1056.85 336.506L1050.75 339.85M1094.28 336.506L1087.51 339.85M1094.28 336.506H1131.71M1039.2 346.188H1074.66M1039.2 346.188L1033.71 349.194M1039.2 346.188H1003.73M1039.2 346.188L1044.87 343.076M1074.66 346.188L1070.07 348.452L1069.32 348.824L1068.57 349.194M1074.66 346.188L1080.97 343.076M1074.66 346.188H1110.13M1033.71 349.194H1068.57M1033.71 349.194L1029.07 351.74L1028.42 352.098M1033.71 349.194H998.857M1068.57 349.194H1103.43M1068.57 349.194L1062.69 352.098M1428.74 252.168L1410.2 259.205M1428.74 252.168H1374.22M1428.74 252.168L1439.61 248.04M1428.74 252.168H1439.61M1410.2 259.205H1357.11M1410.2 259.205L1392.61 265.884M1410.2 259.205H1439.61M1359.98 278.269H1409.21M1359.98 278.269L1344.83 284.022M1359.98 278.269H1310.75M1359.98 278.269L1375.89 272.23M1409.21 278.269L1392.89 284.022M1409.21 278.269L1426.34 272.23M1409.21 278.269H1439.61M1344.83 284.022H1392.89M1344.83 284.022H1296.76M1344.83 284.022L1330.37 289.508M1392.89 284.022L1377.32 289.508M1392.89 284.022H1439.61M1303.38 299.754H1348.26M1303.38 299.754L1290.76 304.544M1303.38 299.754H1258.51M1303.38 299.754L1316.57 294.747M1348.26 299.754L1334.67 304.544M1348.26 299.754L1362.46 294.747M1348.26 299.754H1393.13M1290.76 304.544H1334.67M1290.76 304.544H1246.86M1290.76 304.544L1278.68 309.131M1334.67 304.544L1321.66 309.131M1334.67 304.544H1378.57M1255.98 317.747H1297.21M1255.98 317.747L1245.31 321.798M1255.98 317.747H1214.75M1255.98 317.747L1267.1 313.528M1297.21 317.747L1285.72 321.798M1297.21 317.747L1309.18 313.528M1297.21 317.747H1338.44M1245.31 321.798H1285.72M1245.31 321.798H1204.9M1245.31 321.798L1235.06 325.69M1285.72 321.798L1274.68 325.69M1285.72 321.798H1326.13M1215.71 333.036H1253.84M1215.71 333.036L1206.57 336.506M1215.71 333.036H1177.58M1215.71 333.036L1225.2 329.434M1253.84 333.036L1243.99 336.506M1253.84 333.036L1264.06 329.434M1253.84 333.036H1291.97M1206.57 336.506H1243.99M1206.57 336.506H1169.14M1206.57 336.506L1197.76 339.85M1243.99 336.506L1234.51 339.85M1243.99 336.506H1281.42M1181.06 346.188H1216.53M1181.06 346.188L1173.14 349.194M1181.06 346.188H1145.59M1181.06 346.188L1189.26 343.076M1216.53 346.188L1208 349.194M1216.53 346.188L1225.36 343.076M1216.53 346.188H1251.99M1173.14 349.194H1208M1173.14 349.194L1165.49 352.098M1173.14 349.194H1138.29M1208 349.194H1242.86M1208 349.194L1199.76 352.098M1420.9 317.747L1406.95 321.798M1420.9 317.747H1379.67M1420.9 317.747L1435.43 313.528M1420.9 317.747H1439.61M1406.95 321.798H1366.54M1406.95 321.798L1393.54 325.69M1406.95 321.798H1439.61M1368.23 333.036H1406.36M1368.23 333.036L1356.28 336.506M1368.23 333.036H1330.1M1368.23 333.036L1380.64 329.434M1406.36 333.036L1393.71 336.506M1406.36 333.036L1419.5 329.434M1406.36 333.036H1439.61M1356.28 336.506H1393.71M1356.28 336.506H1318.85M1356.28 336.506L1344.76 339.85M1393.71 336.506L1381.51 339.85M1393.71 336.506H1431.14M1322.93 346.188H1358.39M1322.93 346.188L1312.57 349.194M1322.93 346.188H1287.46M1322.93 346.188L1333.65 343.076M1358.39 346.188L1347.43 349.194M1358.39 346.188L1369.74 343.076M1358.39 346.188H1393.86M1312.57 349.194H1347.43M1312.57 349.194L1302.57 352.098M1312.57 349.194H1277.71M1347.43 349.194H1382.29M1347.43 349.194L1336.84 352.098M1369.74 343.076L1381.51 339.85M1369.74 343.076H1405.84M1369.74 343.076H1333.65M1393.86 346.188L1382.29 349.194M1393.86 346.188L1405.84 343.076M1393.86 346.188H1429.32M1382.29 349.194H1417.14M1382.29 349.194L1371.1 352.098M1336.84 352.098H1302.57M1336.84 352.098H1371.1M1336.84 352.098L1326.6 354.906M1405.84 343.076L1418.26 339.85M1405.84 343.076H1439.61M1429.32 346.188L1417.14 349.194M1429.32 346.188L1439.61 343.65M1429.32 346.188H1439.61M1417.14 349.194L1405.37 352.098M1417.14 349.194H1439.61M1371.1 352.098H1405.37M1371.1 352.098L1360.29 354.906M1405.37 352.098L1393.99 354.906M1405.37 352.098H1439.61M1381.51 339.85H1418.26M1381.51 339.85H1344.76M1431.14 336.506L1418.26 339.85M1431.14 336.506L1439.61 334.305M1431.14 336.506H1439.61M1418.26 339.85H1439.61M1344.76 339.85H1308.01M1344.76 339.85L1333.65 343.076M1333.65 343.076H1297.55M1419.5 329.434L1433.16 325.69M1419.5 329.434H1380.64M1419.5 329.434H1439.61M1439.73 333.036H1439.61M1433.16 325.69H1393.54M1433.16 325.69L1439.61 323.921M1433.16 325.69H1439.61M1393.54 325.69H1353.92M1393.54 325.69L1380.64 329.434M1380.64 329.434H1341.78M1225.36 343.076L1234.51 339.85M1225.36 343.076H1261.45M1225.36 343.076H1189.26M1251.99 346.188L1242.86 349.194M1251.99 346.188L1261.45 343.076M1251.99 346.188H1287.46M1242.86 349.194H1277.71M1242.86 349.194L1234.03 352.098M1199.76 352.098H1234.03M1199.76 352.098L1191.8 354.906M1199.76 352.098H1165.49M1261.45 343.076L1271.26 339.85M1261.45 343.076H1297.55M1287.46 346.188L1277.71 349.194M1287.46 346.188L1297.55 343.076M1277.71 349.194L1268.3 352.098M1234.03 352.098H1268.3M1234.03 352.098L1225.5 354.906M1297.55 343.076L1308.01 339.85M1302.57 352.098H1268.3M1302.57 352.098L1292.89 354.906M1268.3 352.098L1259.2 354.906M1234.51 339.85H1271.26M1234.51 339.85H1197.76M1281.42 336.506L1271.26 339.85M1281.42 336.506L1291.97 333.036M1281.42 336.506H1318.85M1271.26 339.85H1308.01M1197.76 339.85H1161.01M1197.76 339.85L1189.26 343.076M1308.01 339.85L1318.85 336.506M1189.26 343.076H1153.16M1291.97 333.036L1302.92 329.434M1291.97 333.036H1330.1M1318.85 336.506L1330.1 333.036M1330.1 333.036L1341.78 329.434M1264.06 329.434L1274.68 325.69M1264.06 329.434H1302.92M1264.06 329.434H1225.2M1302.92 329.434L1314.3 325.69M1302.92 329.434H1341.78M1341.78 329.434L1353.92 325.69M1274.68 325.69H1314.3M1274.68 325.69H1235.06M1326.13 321.798L1314.3 325.69M1326.13 321.798L1338.44 317.747M1326.13 321.798H1366.54M1314.3 325.69H1353.92M1235.06 325.69H1195.44M1235.06 325.69L1225.2 329.434M1353.92 325.69L1366.54 321.798M1225.2 329.434H1186.34M1338.44 317.747L1351.27 313.528M1338.44 317.747H1379.67M1366.54 321.798L1379.67 317.747M1379.67 317.747L1393.35 313.528M1309.18 313.528L1321.66 309.131M1309.18 313.528H1351.27M1309.18 313.528H1267.1M1351.27 313.528L1364.63 309.131M1351.27 313.528H1393.35M1393.35 313.528L1407.61 309.131M1393.35 313.528H1435.43M1435.43 313.528H1439.61M1435.43 313.528L1439.61 312.316M1321.66 309.131H1364.63M1321.66 309.131H1278.68M1378.57 304.544L1364.63 309.131M1378.57 304.544L1393.13 299.754M1378.57 304.544H1422.48M1364.63 309.131H1407.61M1278.68 309.131H1235.7M1278.68 309.131L1267.1 313.528M1407.61 309.131L1422.48 304.544M1407.61 309.131H1439.61M1267.1 313.528H1225.01M1393.13 299.754L1408.35 294.747M1393.13 299.754H1438.01M1422.48 304.544L1438.01 299.754M1422.48 304.544H1439.61M1439.84 309.131H1439.61M1438.01 299.754L1439.61 299.259M1438.01 299.754H1439.61M1362.46 294.747L1377.32 289.508M1362.46 294.747H1408.35M1362.46 294.747H1316.57M1408.35 294.747L1424.28 289.508M1408.35 294.747H1439.61M1440 299.14L1439.61 299.259M1377.32 289.508H1424.28M1377.32 289.508H1330.37M1424.28 289.508H1439.61M1424.28 289.508L1439.61 284.463M1330.37 289.508H1283.42M1330.37 289.508L1316.57 294.747M1316.57 294.747H1270.68M1426.34 272.23H1375.89M1426.34 272.23L1439.61 267.552M1426.34 272.23H1439.61M1439.98 278.269H1439.61M1375.89 272.23H1325.43M1375.89 272.23L1392.61 265.884M1439.76 267.5L1439.61 267.552M1080.97 343.076L1087.51 339.85M1080.97 343.076H1117.07M1080.97 343.076H1044.87M1110.13 346.188L1103.43 349.194M1110.13 346.188L1117.07 343.076M1110.13 346.188H1145.59M1103.43 349.194H1138.29M1103.43 349.194L1096.96 352.098M1062.69 352.098H1096.96M1062.69 352.098L1060.53 353.162L1057 354.906M1062.69 352.098H1028.42M1117.07 343.076L1124.26 339.85M1117.07 343.076H1153.16M1145.59 346.188L1138.29 349.194M1145.59 346.188L1153.16 343.076M1138.29 349.194L1131.22 352.098M1096.96 352.098H1131.22M1096.96 352.098L1090.7 354.906M1153.16 343.076L1161.01 339.85M1165.49 352.098L1158.1 354.906M1165.49 352.098H1131.22M1131.22 352.098L1130.36 352.455L1128.64 353.162L1124.4 354.906M1087.51 339.85H1124.26M1087.51 339.85H1050.75M1131.71 336.506L1124.26 339.85M1131.71 336.506L1139.44 333.036M1131.71 336.506H1169.14M1124.26 339.85H1161.01M1050.75 339.85H1014M1050.75 339.85L1044.87 343.076M1161.01 339.85L1169.14 336.506M1044.87 343.076H1008.78M1139.44 333.036L1147.48 329.434M1139.44 333.036H1177.58M1169.14 336.506L1170.18 336.08L1177.58 333.036M1177.58 333.036L1186.34 329.434M1108.61 329.434L1109.55 328.973L1116.2 325.69M1108.61 329.434H1147.48M1108.61 329.434H1069.75M1147.48 329.434L1155.82 325.69M1147.48 329.434H1186.34M1186.34 329.434L1195.44 325.69M1116.2 325.69H1155.82M1116.2 325.69H1076.58M1164.5 321.798L1155.82 325.69M1164.5 321.798L1173.52 317.747M1164.5 321.798H1204.9M1155.82 325.69H1195.44M1076.58 325.69H1036.96M1076.58 325.69L1069.75 329.434M1195.44 325.69L1204.9 321.798M1069.75 329.434H1030.89M1173.52 317.747L1182.93 313.528M1173.52 317.747H1214.75M1204.9 321.798L1214.75 317.747M1214.75 317.747L1225.01 313.528M1140.84 313.528L1149.75 309.131M1140.84 313.528H1182.93M1140.84 313.528H1098.76M1182.93 313.528L1192.73 309.131M1182.93 313.528H1225.01M1225.01 313.528L1235.7 309.131M1149.75 309.131H1192.73M1149.75 309.131H1106.78M1202.95 304.544L1192.73 309.131M1202.95 304.544L1213.63 299.754M1202.95 304.544H1246.86M1192.73 309.131H1235.7M1106.78 309.131H1063.8M1106.78 309.131L1098.76 313.528M1235.7 309.131L1246.86 304.544M1098.76 313.528H1056.67M1213.63 299.754L1224.79 294.747M1213.63 299.754H1258.51M1246.86 304.544L1258.51 299.754M1258.51 299.754L1270.68 294.747M1178.9 294.747L1189.52 289.508M1178.9 294.747H1224.79M1178.9 294.747H1133.01M1224.79 294.747L1236.47 289.508M1224.79 294.747H1270.68M1270.68 294.747L1283.42 289.508M1189.52 289.508H1236.47M1189.52 289.508H1142.57M1248.7 284.022L1236.47 289.508M1248.7 284.022L1261.52 278.269M1248.7 284.022H1296.76M1236.47 289.508H1283.42M1142.57 289.508H1095.61M1142.57 289.508L1133.01 294.747M1283.42 289.508L1296.76 284.022M1133.01 294.747H1087.12M1261.52 278.269L1274.98 272.23M1261.52 278.269H1310.75M1296.76 284.022L1310.75 278.269M1310.75 278.269L1325.43 272.23M1224.53 272.23L1237.39 265.884M1224.53 272.23H1274.98M1224.53 272.23H1174.08M1274.98 272.23L1289.13 265.884M1274.98 272.23H1325.43M1325.43 272.23L1340.87 265.884M1237.39 265.884H1289.13M1237.39 265.884H1185.65M1304.01 259.205L1289.13 265.884M1304.01 259.205L1319.7 252.168M1304.01 259.205H1357.11M1289.13 265.884H1340.87M1185.65 265.884H1133.91M1185.65 265.884L1174.08 272.23M1340.87 265.884L1357.11 259.205M1340.87 265.884H1392.61M1174.08 272.23H1123.62M1319.7 252.168L1336.25 244.742M1319.7 252.168H1374.22M1357.11 259.205L1374.22 252.168M1392.61 265.884H1439.61M1374.22 252.168L1392.28 244.742M1280.23 244.742L1296.13 236.895M1280.23 244.742H1336.25M1280.23 244.742H1224.21M1336.25 244.742L1353.75 236.895M1336.25 244.742H1392.28M1392.28 244.742L1411.36 236.895M1392.28 244.742H1439.61M1296.13 236.895H1353.75M1296.13 236.895H1238.52M1372.26 228.588L1353.75 236.895M1372.26 228.588L1391.89 219.783M1372.26 228.588H1431.56M1353.75 236.895H1411.36M1238.52 236.895H1180.91M1238.52 236.895L1224.21 244.742M1411.36 236.895L1431.56 228.588M1411.36 236.895H1439.61M1224.21 244.742H1168.18M1391.89 219.783L1412.73 210.43M1391.89 219.783H1439.61M1431.56 228.588H1439.61M1431.56 228.588L1439.61 225.275M1349.76 210.43L1369.92 200.479M1349.76 210.43H1412.73M1349.76 210.43H1286.78M1412.73 210.43L1434.91 200.479M1412.73 210.43H1439.61M1369.92 200.479H1434.91M1369.92 200.479H1304.93M1434.91 200.479L1439.61 198.372M1434.91 200.479H1439.61M1304.93 200.479H1239.94M1304.93 200.479L1286.78 210.43M1286.78 210.43H1223.81M1438.99 166.396H1367.09M1438.99 166.396H1439.61M1438.99 166.396L1439.61 166.088M1367.09 166.396H1295.19M1367.09 166.396L1390.85 153.366M936.582 343.076L938.036 341.88L938.524 341.477L940.503 339.85M936.582 343.076H972.678M936.582 343.076H900.485M968.263 346.188L965.052 348.452L964 349.194M968.263 346.188L972.118 343.471L972.678 343.076M968.263 346.188H1003.73M964 349.194H998.857M964 349.194L959.881 352.098M925.612 352.098H959.881M925.612 352.098L924.318 353.162L922.198 354.906M925.612 352.098H891.344M972.678 343.076L973.807 342.28L977.254 339.85M972.678 343.076H1008.78M1003.73 346.188L998.857 349.194M1003.73 346.188L1008.78 343.076M998.857 349.194L995.311 351.381L994.149 352.098M959.881 352.098H994.149M959.881 352.098L955.898 354.906M1008.78 343.076L1014 339.85M1028.42 352.098L1027.77 352.455L1023.3 354.906M1028.42 352.098H994.149M994.149 352.098L992.424 353.162L989.597 354.906M940.503 339.85H977.254M940.503 339.85H903.752M981.997 336.506L977.254 339.85M981.997 336.506L986.919 333.036M981.997 336.506H1019.43M977.254 339.85H1014M903.752 339.85H867.002M903.752 339.85L900.485 343.076M1014 339.85L1019.43 336.506M900.485 343.076H864.388M986.919 333.036L990.09 330.8L990.734 330.347L992.029 329.434M986.919 333.036H1025.05M1019.43 336.506L1025.05 333.036M1025.05 333.036L1030.89 329.434M953.168 329.434L957.72 325.69M953.168 329.434H992.029M953.168 329.434H914.307M992.029 329.434L997.339 325.69M992.029 329.434H1030.89M1030.89 329.434L1036.96 325.69M957.72 325.69H997.339M957.72 325.69H918.1M1002.86 321.798L999.384 324.248L998.7 324.731L997.339 325.69M1002.86 321.798L1008.61 317.747M1002.86 321.798H1043.27M997.339 325.69H1036.96M918.1 325.69H878.48M918.1 325.69L914.307 329.434M1036.96 325.69L1043.27 321.798M914.307 329.434H875.445M1008.61 317.747L1014.59 313.528M1008.61 317.747H1049.84M1043.27 321.798L1049.84 317.747M1049.84 317.747L1056.67 313.528M972.506 313.528L975.151 311.353L975.821 310.802L977.852 309.131M972.506 313.528H1014.59M972.506 313.528H930.421M1014.59 313.528L1020.83 309.131M1014.59 313.528H1056.67M1056.67 313.528L1063.8 309.131M977.852 309.131H1020.83M977.852 309.131H934.877M1027.33 304.544L1020.83 309.131M1027.33 304.544L1034.13 299.754M1027.33 304.544H1071.24M1020.83 309.131H1063.8M934.877 309.131H891.901M934.877 309.131L933.745 310.248L930.421 313.528M1063.8 309.131L1071.24 304.544M930.421 313.528H888.338M1034.13 299.754L1041.23 294.747M1034.13 299.754H1079M1071.24 304.544L1079 299.754M1079 299.754L1087.12 294.747M995.341 294.747L1001.71 289.508M995.341 294.747H1041.23M995.341 294.747H949.451M1041.23 294.747L1048.66 289.508M1041.23 294.747H1087.12M1087.12 294.747L1095.61 289.508M1001.71 289.508H1048.66M1001.71 289.508H954.759M1056.44 284.022L1048.66 289.508M1056.44 284.022L1064.6 278.269M1056.44 284.022H1104.51M1048.66 289.508H1095.61M954.759 289.508H907.807M954.759 289.508L949.451 294.747M1095.61 289.508L1104.51 284.022M949.451 294.747H903.561M1064.6 278.269L1073.17 272.23M1064.6 278.269H1113.83M1104.51 284.022L1113.83 278.269M1113.83 278.269L1123.62 272.23M1022.72 272.23L1030.43 265.884M1022.72 272.23H1073.17M1022.72 272.23H972.265M1073.17 272.23L1082.17 265.884M1073.17 272.23H1123.62M1123.62 272.23L1133.91 265.884M1030.43 265.884H1082.17M1030.43 265.884H978.695M1091.65 259.205L1082.17 265.884M1091.65 259.205L1101.63 252.168M1091.65 259.205H1144.74M1082.17 265.884H1133.91M978.695 265.884H926.956M978.695 265.884L972.265 272.23M1133.91 265.884L1144.74 259.205M972.265 272.23H921.812M1101.63 252.168L1112.16 244.742M1101.63 252.168H1156.15M1144.74 259.205L1156.15 252.168M1156.15 252.168L1168.18 244.742M1056.14 244.742L1065.68 236.895M1056.14 244.742H1112.16M1056.14 244.742H1000.12M1112.16 244.742L1123.29 236.895M1112.16 244.742H1168.18M1168.18 244.742L1180.91 236.895M1065.68 236.895H1123.29M1065.68 236.895H1008.07M1135.07 228.588L1123.29 236.895M1135.07 228.588L1147.57 219.783M1135.07 228.588H1194.37M1123.29 236.895H1180.91M1008.07 236.895H950.453M1008.07 236.895L1000.12 244.742M1180.91 236.895L1194.37 228.588M1000.12 244.742H944.093M1147.57 219.783L1160.83 210.43M1147.57 219.783H1208.65M1194.37 228.588L1208.65 219.783M1208.65 219.783L1223.81 210.43M1097.86 210.43L1109.95 200.479M1097.86 210.43H1160.83M1097.86 210.43H1034.88M1160.83 210.43L1174.95 200.479M1160.83 210.43H1223.81M1223.81 210.43L1239.94 200.479M1109.95 200.479H1174.95M1109.95 200.479H1044.96M1189.99 189.87L1174.95 200.479M1189.99 189.87L1206.07 178.535M1189.99 189.87H1257.14M1174.95 200.479H1239.94M1044.96 200.479H979.969M1044.96 200.479L1034.88 210.43M1239.94 200.479L1257.14 189.87M1034.88 210.43H971.903M1206.07 178.535L1223.29 166.396M1206.07 178.535H1275.51M1257.14 189.87L1275.51 178.535M1275.51 178.535L1295.19 166.396M1151.39 166.396L1167.23 153.366M1151.39 166.396H1223.29M1151.39 166.396H1079.49M1223.29 166.396L1241.77 153.366M1223.29 166.396H1295.19M1295.19 166.396L1316.31 153.366M1167.23 153.366H1241.77M1167.23 153.366H1092.7M1261.67 139.343L1241.77 153.366M1261.67 139.343L1283.13 124.208M1261.67 139.343H1339.05M1241.77 153.366H1316.31M1092.7 153.366H1018.16M1092.7 153.366L1079.49 166.396M1316.31 153.366L1339.05 139.343M1316.31 153.366H1390.85M1079.49 166.396H1007.6M1283.13 124.208L1306.37 107.823M1283.13 124.208H1363.58M1339.05 139.343L1363.58 124.208M1390.85 153.366H1439.61M1363.58 124.208L1390.14 107.823M1363.58 124.208H1439.61M1222.61 107.823L1244.24 90.0285M1222.61 107.823H1306.37M1222.61 107.823H1138.84M1306.37 107.823L1331.62 90.0285M1306.37 107.823H1390.14M1390.14 107.823L1418.99 90.0285M1390.14 107.823H1439.61M1244.24 90.0285H1331.62M1244.24 90.0285H1156.87M1359.13 70.6329L1331.62 90.0285M1359.13 70.6329L1389.23 49.4101M1359.13 70.6329H1439.61M1331.62 90.0285H1418.99M1156.87 90.0285H1069.49M1156.87 90.0285L1138.84 107.823M1418.99 90.0285H1439.61M1418.99 90.0285L1439.61 77.3068M1138.84 107.823H1055.07M1389.23 49.4101L1422.31 26.089M1389.23 49.4101H1439.61M1321.98 26.089L1353.28 0.342329M1321.98 26.089H1422.31M1321.98 26.089H1221.65M1422.31 26.089L1439.61 13.8918M1422.31 26.089H1439.61M1353.28 0.342329H1247.74M1353.28 0.342329L1439.61 0.342783M1247.74 0.342329H1142.19M1247.74 0.342329L1221.65 26.089M1221.65 26.089H1121.32M792.194 343.076L792.355 342.679L792.516 342.28L792.679 341.88L792.841 341.477L793.335 340.26L793.501 339.85M792.194 343.076H828.291M792.194 343.076H756.097M826.398 346.188L825.022 348.452L824.572 349.194M826.398 346.188L827.574 344.256L828.291 343.076M826.398 346.188H861.865M824.572 349.194H859.429M824.572 349.194L823.242 351.381L822.806 352.098M788.537 352.098L788.393 352.455L787.822 353.864L787.399 354.906M788.537 352.098H822.806M788.537 352.098H754.269M828.291 343.076L828.532 342.679L828.775 342.28L829.018 341.88L829.263 341.477L830.251 339.85M828.291 343.076H864.388M861.865 346.188L860.03 348.452L859.429 349.194M861.865 346.188L864.388 343.076M859.429 349.194L858.241 350.658L857.364 351.74L857.075 352.098M822.806 352.098L822.59 352.455L822.159 353.162L821.732 353.864L821.521 354.213L821.099 354.906M822.806 352.098H857.075M864.388 343.076L866.34 340.668L867.002 339.85M891.344 352.098L889.201 354.213L888.499 354.906M891.344 352.098H857.075M857.075 352.098L855.079 354.56L854.798 354.906M793.501 339.85H830.251M793.501 339.85H756.75M832.284 336.506L830.251 339.85M832.284 336.506L834.394 333.036M832.284 336.506H869.712M830.251 339.85H867.002M756.75 339.85H720M756.75 339.85L756.097 343.076M867.002 339.85L869.712 336.506M756.097 343.076H720M834.394 333.036L834.934 332.148L835.753 330.8L836.584 329.434M834.394 333.036H872.526M869.712 336.506L870.059 336.08L872.526 333.036M872.526 333.036L872.884 332.593L873.245 332.148L873.607 331.701L875.445 329.434M797.723 329.434L799.24 325.69M797.723 329.434H836.584M797.723 329.434H758.861M836.584 329.434L838.86 325.69M836.584 329.434H875.445M875.445 329.434L877.71 326.64L878.094 326.166L878.48 325.69M799.24 325.69H838.86M799.24 325.69H759.62M841.226 321.798L841.528 321.3L841.833 320.8L842.138 320.297L843.689 317.747M841.226 321.798L840.031 323.763L839.736 324.248L839.443 324.731L838.86 325.69M841.226 321.798H881.635M838.86 325.69H878.48M759.62 325.69H720M759.62 325.69L758.861 329.434M878.48 325.69L881.635 321.798M758.861 329.434H720M843.689 317.747L845.927 314.065L846.253 313.528M843.689 317.747H884.918M881.635 321.798L882.443 320.8L884.918 317.747M884.918 317.747L886.184 316.185L888.338 313.528M804.168 313.528L805.051 311.353L805.273 310.802L805.951 309.131M804.168 313.528H846.253M804.168 313.528H762.085M846.253 313.528L848.926 309.131M846.253 313.528H888.338M888.338 313.528L891.901 309.131M805.951 309.131H848.926M805.951 309.131H762.975M851.715 304.544L848.926 309.131M851.715 304.544L854.627 299.754M851.715 304.544H895.62M848.926 309.131H891.901M762.975 309.131H720M762.975 309.131L762.749 310.248L762.304 312.446L762.085 313.528M891.901 309.131L895.62 304.544M762.085 313.528H720M854.627 299.754L856.896 296.019L857.671 294.747M854.627 299.754H899.503M895.62 304.544L899.503 299.754M899.503 299.754L901.509 297.278L903.561 294.747M811.781 294.747L813.903 289.508M811.781 294.747H857.671M811.781 294.747H765.89M857.671 294.747L860.855 289.508M857.671 294.747H903.561M903.561 294.747L907.807 289.508M813.903 289.508H860.855M813.903 289.508H766.952M864.191 284.022L863.342 285.417L860.855 289.508M864.191 284.022L867.688 278.269M864.191 284.022H912.254M860.855 289.508H907.807M766.952 289.508H720M766.952 289.508L765.89 294.747M907.807 289.508L912.254 284.022M765.89 294.747H720M867.688 278.269L871.358 272.23M867.688 278.269H916.917M912.254 284.022L916.917 278.269M916.917 278.269L921.812 272.23M820.906 272.23L823.478 265.884M820.906 272.23H871.358M820.906 272.23H770.453M871.358 272.23L875.217 265.884M871.358 272.23H921.812M921.812 272.23L926.956 265.884M823.478 265.884H875.217M823.478 265.884H771.739M879.277 259.205L875.217 265.884M879.277 259.205L883.555 252.168M879.277 259.205H932.369M875.217 265.884H926.956M771.739 265.884H720M771.739 265.884L770.61 271.454L770.453 272.23M926.956 265.884L932.369 259.205M770.453 272.23H720M883.555 252.168L888.069 244.742M883.555 252.168H938.073M932.369 259.205L936.618 253.962L938.073 252.168M938.073 252.168L944.093 244.742M832.046 244.742L835.226 236.895M832.046 244.742H888.069M832.046 244.742H776.023M888.069 244.742L892.84 236.895M888.069 244.742H944.093M944.093 244.742L950.453 236.895M835.226 236.895H892.84M835.226 236.895H777.613M897.889 228.588L892.84 236.895M897.889 228.588L903.242 219.783M897.889 228.588H957.185M892.84 236.895H950.453M777.613 236.895H720M777.613 236.895L776.023 244.742M950.453 236.895L957.185 228.588M776.023 244.742H720M903.242 219.783L908.927 210.43M903.242 219.783H964.323M957.185 228.588L964.323 219.783M964.323 219.783L971.903 210.43M845.952 210.43L849.984 200.479M845.952 210.43H908.927M845.952 210.43H782.976M908.927 210.43L914.977 200.479M908.927 210.43H971.903M971.903 210.43L979.969 200.479M849.984 200.479H914.977M849.984 200.479H784.992M921.426 189.87L914.977 200.479M921.426 189.87L928.317 178.535M921.426 189.87H988.568M914.977 200.479H979.969M784.992 200.479H720M784.992 200.479L782.976 210.43M979.969 200.479L988.568 189.87M782.976 210.43H720M928.317 178.535L935.696 166.396M928.317 178.535H997.756M988.568 189.87L997.756 178.535M997.756 178.535L1007.6 166.396M863.797 166.396L869.078 153.366M863.797 166.396H935.696M863.797 166.396H791.899M935.696 166.396L943.617 153.366M935.696 166.396H1007.6M1007.6 166.396L1018.16 153.366M869.078 153.366H943.617M869.078 153.366H794.539M952.142 139.343L943.617 153.366M952.142 139.343L961.343 124.208M952.142 139.343H1029.52M943.617 153.366H1018.16M794.539 153.366H720M794.539 153.366L791.899 166.396M1018.16 153.366L1029.52 139.343M791.899 166.396H720M961.343 124.208L971.304 107.823M961.343 124.208H1041.79M1029.52 139.343L1041.79 124.208M1041.79 124.208L1055.07 107.823M887.536 107.823L894.747 90.0285M887.536 107.823H971.304M887.536 107.823H803.768M971.304 107.823L982.121 90.0285M971.304 107.823H1055.07M1055.07 107.823L1069.49 90.0285M894.747 90.0285H982.121M894.747 90.0285H807.374M993.912 70.6329L982.121 90.0285M993.912 70.6329L1006.81 49.4101M993.912 70.6329H1085.22M982.121 90.0285H1069.49M807.374 90.0285H720M807.374 90.0285L803.768 107.823M1069.49 90.0285L1085.22 70.6329M803.768 107.823H720M1006.81 49.4101L1020.99 26.089M1006.81 49.4101H1102.42M1085.22 70.6329L1102.42 49.4101M1102.42 49.4101L1121.32 26.089M920.66 26.089L931.095 0.342329M920.66 26.089H1020.99M920.66 26.089H820.33M1020.99 26.089L1036.64 0.342329M1020.99 26.089H1121.32M1121.32 26.089L1142.19 0.342329M1036.64 0.342329H931.095M1036.64 0.342329H1142.19M931.095 0.342329H825.548M825.548 0.342329H720M825.548 0.342329L820.33 26.089M820.33 26.089H720M647.806 343.076L647.645 342.679L647.484 342.28L647.321 341.88L647.159 341.477L646.83 340.668L646.665 340.26L646.499 339.85M647.806 343.076H683.903M647.806 343.076H611.709M684.534 346.188L685.143 349.194M684.534 346.188L683.903 343.076M684.534 346.188H720M685.143 349.194L685.217 349.562L685.292 349.929L685.366 350.295L685.731 352.098M685.143 349.194H720M651.463 352.098L651.607 352.455L652.178 353.864L652.601 354.906M651.463 352.098H685.731M651.463 352.098H617.194M683.903 343.076L683.822 342.679L683.742 342.28L683.66 341.88L683.25 339.85M683.903 343.076H720M720 346.188V349.194M720 346.188V343.076M720 349.194V352.098M685.731 352.098H720M685.731 352.098L685.947 353.162L686.019 353.514L686.3 354.906M720 343.076V339.85M754.269 352.098L754.053 353.162L753.982 353.514L753.911 353.864L753.84 354.213L753.77 354.56L753.7 354.906M754.269 352.098H720M720 352.098V354.906M646.499 339.85H683.25M646.499 339.85H609.749M682.572 336.506L682.485 336.08L682.399 335.651L681.869 333.036M682.572 336.506L683.25 339.85M682.572 336.506H720M683.25 339.85H720M609.749 339.85H572.998M609.749 339.85L610.245 340.668L610.492 341.073L610.737 341.477L610.982 341.88L611.225 342.28L611.468 342.679L611.709 343.076M720 339.85V336.506M611.709 343.076H575.612M681.869 333.036L681.139 329.434M681.869 333.036H720M720 336.506V333.036M720 333.036V329.434M642.277 329.434L640.76 325.69M642.277 329.434H681.139M642.277 329.434H603.416M681.139 329.434L680.38 325.69M681.139 329.434H720M720 329.434V325.69M640.76 325.69H680.38M640.76 325.69H601.14M679.592 321.798L680.38 325.69M679.592 321.798L678.771 317.747M679.592 321.798H720M680.38 325.69H720M601.14 325.69H561.52M601.14 325.69L603.416 329.434M720 325.69V321.798M603.416 329.434H564.555M678.771 317.747L678.454 316.185L678.133 314.6L677.915 313.528M678.771 317.747H720M720 321.798V317.747M720 317.747V313.528M635.832 313.528L634.949 311.353L634.727 310.802L634.049 309.131M635.832 313.528H677.915M635.832 313.528H593.747M677.915 313.528L677.697 312.446L677.251 310.248L677.025 309.131M677.915 313.528H720M720 313.528V309.131M634.049 309.131H677.025M634.049 309.131H591.074M676.095 304.544L676.213 305.128L677.025 309.131M676.095 304.544L675.125 299.754M676.095 304.544H720M677.025 309.131H720M591.074 309.131H548.099M591.074 309.131L593.747 313.528M720 309.131V304.544M593.747 313.528H551.662M675.125 299.754L674.11 294.747M675.125 299.754H720M720 304.544V299.754M720 299.754V294.747M628.219 294.747L626.097 289.508M628.219 294.747H674.11M628.219 294.747H582.329M674.11 294.747L673.048 289.508M674.11 294.747H720M720 294.747V289.508M626.097 289.508H673.048M626.097 289.508H579.145M671.937 284.022L673.048 289.508M671.937 284.022L670.771 278.269M671.937 284.022H720M673.048 289.508H720M579.145 289.508H532.193M579.145 289.508L582.329 294.747M720 289.508V284.022M582.329 294.747H536.439M670.771 278.269L669.547 272.23M670.771 278.269H720M720 284.022V278.269M720 278.269V272.23M619.094 272.23L616.522 265.884M619.094 272.23H669.547M619.094 272.23H568.642M669.547 272.23L668.261 265.884M669.547 272.23H720M720 272.23V265.884M616.522 265.884H668.261M616.522 265.884H564.783M666.908 259.205L668.261 265.884M666.908 259.205L665.482 252.168M666.908 259.205H720M668.261 265.884H720M564.783 265.884H513.044M564.783 265.884L568.642 272.23M720 265.884V259.205M568.642 272.23H518.188M665.482 252.168L663.977 244.742M665.482 252.168H720M720 259.205V252.168M720 252.168V244.742M607.954 244.742L604.774 236.895M607.954 244.742H663.977M607.954 244.742H551.931M663.977 244.742L662.387 236.895M663.977 244.742H720M720 244.742V236.895M604.774 236.895H662.387M604.774 236.895H547.16M660.704 228.588L662.387 236.895M660.704 228.588L658.919 219.783M660.704 228.588H720M662.387 236.895H720M547.16 236.895H489.547M547.16 236.895L551.931 244.742M720 236.895V228.588M551.931 244.742H495.907M658.919 219.783L657.024 210.43M658.919 219.783H720M720 228.588V219.783M720 219.783V210.43M594.048 210.43L590.016 200.479M594.048 210.43H657.024M594.048 210.43H531.073M657.024 210.43L655.008 200.479M657.024 210.43H720M720 210.43V200.479M590.016 200.479H655.008M590.016 200.479H525.023M652.858 189.87L655.008 200.479M652.858 189.87L650.561 178.535M652.858 189.87H720M655.008 200.479H720M525.023 200.479H460.031M525.023 200.479L531.073 210.43M720 200.479V189.87M531.073 210.43H468.097M650.561 178.535L648.101 166.396M650.561 178.535H720M720 189.87V178.535M720 178.535V166.396M576.203 166.396L570.922 153.366M576.203 166.396H648.101M576.203 166.396H504.304M648.101 166.396L645.461 153.366M648.101 166.396H720M720 166.396V153.366M570.922 153.366H645.461M570.922 153.366H496.383M642.619 139.343L645.461 153.366M642.619 139.343L639.553 124.208M642.619 139.343H720M645.461 153.366H720M496.383 153.366H421.844M496.383 153.366L504.304 166.396M720 153.366V139.343M504.304 166.396H432.405M639.553 124.208L636.232 107.823M639.553 124.208H720M720 139.343V124.208M720 124.208V107.823M552.465 107.823L545.253 90.0285M552.465 107.823H636.232M552.465 107.823H468.696M636.232 107.823L632.626 90.0285M636.232 107.823H720M720 107.823V90.0285M545.253 90.0285H632.626M545.253 90.0285H457.879M628.696 70.6329L632.626 90.0285M628.696 70.6329L624.396 49.4101M628.696 70.6329H720M632.626 90.0285H720M457.879 90.0285H370.505M457.879 90.0285L468.696 107.823M720 90.0285V70.6329M468.696 107.823H384.929M624.396 49.4101L619.67 26.089M624.396 49.4101H720M720 70.6329V49.4101M720 49.4101V26.089M519.34 26.089L508.905 0.342329M519.34 26.089H619.67M519.34 26.089H419.009M619.67 26.089L614.452 0.342329M619.67 26.089H720M720 26.089V0.342329M614.452 0.342329H508.905M614.452 0.342329H720M508.905 0.342329H403.358M403.358 0.342329H297.81M403.358 0.342329L419.009 26.089M419.009 26.089H318.679M503.418 343.076L501.475 341.477L499.497 339.85M503.418 343.076H539.515M503.418 343.076H467.322M542.669 346.188L545.714 349.194M542.669 346.188L539.515 343.076M542.669 346.188H578.135M545.714 349.194H580.571M545.714 349.194L547.93 351.381L548.657 352.098M514.388 352.098H548.657M514.388 352.098L515.682 353.162L517.802 354.906M514.388 352.098H480.119M539.515 343.076L536.248 339.85M539.515 343.076H575.612M578.135 346.188L580.571 349.194M578.135 346.188L575.612 343.076M580.571 349.194L581.759 350.658L582.636 351.74L582.925 352.098M548.657 352.098H582.925M548.657 352.098L550.799 354.213L551.501 354.906M575.612 343.076L573.66 340.668L572.998 339.85M617.194 352.098L617.41 352.455L617.841 353.162L618.479 354.213L618.901 354.906M617.194 352.098H582.925M582.925 352.098L583.214 352.455L583.788 353.162L585.201 354.906M499.497 339.85H536.248M499.497 339.85H462.746M532.859 336.506L533.29 336.931L533.718 337.354L535.412 339.026L536.248 339.85M532.859 336.506L530.234 333.916L529.343 333.036M532.859 336.506H570.288M536.248 339.85H572.998M462.746 339.85H425.996M462.746 339.85L466.193 342.28L467.322 343.076M572.998 339.85L570.288 336.506M467.322 343.076H431.224M529.343 333.036L528.895 332.593L528.444 332.148L527.079 330.8L526.618 330.347L525.693 329.434M529.343 333.036H567.474M570.288 336.506L569.941 336.08L567.474 333.036M567.474 333.036L567.116 332.593L566.755 332.148L566.393 331.701L564.555 329.434M486.832 329.434L482.281 325.69M486.832 329.434H525.693M486.832 329.434H447.971M525.693 329.434L521.9 325.69M525.693 329.434H564.555M564.555 329.434L561.52 325.69M482.281 325.69H521.9M482.281 325.69H442.661M517.957 321.798L521.9 325.69M517.957 321.798L513.853 317.747M517.957 321.798H558.365M521.9 325.69H561.52M442.661 325.69H403.041M442.661 325.69L447.971 329.434M561.52 325.69L558.365 321.798M447.971 329.434H409.109M513.853 317.747L509.579 313.528M513.853 317.747H555.082M558.365 321.798L557.556 320.8L555.082 317.747M555.082 317.747L553.816 316.185L552.53 314.6L551.662 313.528M467.494 313.528L464.849 311.353L462.148 309.131M467.494 313.528H509.579M467.494 313.528H425.409M509.579 313.528L505.123 309.131M509.579 313.528H551.662M551.662 313.528L548.099 309.131M462.148 309.131H505.123M462.148 309.131H419.173M500.475 304.544L505.123 309.131M500.475 304.544L495.622 299.754M500.475 304.544H544.38M505.123 309.131H548.099M419.173 309.131H376.197M419.173 309.131L425.409 313.528M548.099 309.131L544.38 304.544M425.409 313.528H383.326M495.622 299.754L494.375 298.523L490.549 294.747M495.622 299.754H540.497M544.38 304.544L540.497 299.754M540.497 299.754L540 299.14L538.491 297.278L536.439 294.747M444.659 294.747L438.29 289.508M444.659 294.747H490.549M444.659 294.747H398.769M490.549 294.747L485.241 289.508M490.549 294.747H536.439M536.439 294.747L532.193 289.508M438.29 289.508H485.241M438.29 289.508H391.338M479.682 284.022L483.188 287.481L485.241 289.508M479.682 284.022L473.854 278.269M479.682 284.022H527.746M485.241 289.508H532.193M391.338 289.508H344.386M391.338 289.508L398.769 294.747M532.193 289.508L527.746 284.022M398.769 294.747H352.878M473.854 278.269L467.735 272.23M473.854 278.269H523.083M527.746 284.022L523.083 278.269M523.083 278.269L518.188 272.23M417.282 272.23L409.566 265.884M417.282 272.23H467.735M417.282 272.23H366.83M467.735 272.23L461.305 265.884M467.735 272.23H518.188M518.188 272.23L513.044 265.884M409.566 265.884H461.305M409.566 265.884H357.827M454.539 259.205L461.305 265.884M454.539 259.205L447.409 252.168M454.539 259.205H507.631M461.305 265.884H513.044M357.827 265.884H306.089M357.827 265.884L366.83 272.23M513.044 265.884L507.631 259.205M366.83 272.23H316.377M447.409 252.168L439.885 244.742M447.409 252.168H501.927M507.631 259.205L501.927 252.168M501.927 252.168L495.907 244.742M383.862 244.742L374.321 236.895M383.862 244.742H439.885M383.862 244.742H327.838M439.885 244.742L431.934 236.895M439.885 244.742H495.907M495.907 244.742L489.547 236.895M374.321 236.895H431.934M374.321 236.895H316.707M423.518 228.588L431.934 236.895M423.518 228.588L414.596 219.783M423.518 228.588H482.815M431.934 236.895H489.547M316.707 236.895H259.094M316.707 236.895L327.838 244.742M489.547 236.895L482.815 228.588M327.838 244.742H271.816M414.596 219.783L405.121 210.43M414.596 219.783H475.677M482.815 228.588L475.677 219.783M475.677 219.783L468.097 210.43M342.145 210.43L330.046 200.479M342.145 210.43H405.121M342.145 210.43H279.169M405.121 210.43L395.039 200.479M405.121 210.43H468.097M468.097 210.43L460.031 200.479M330.046 200.479H395.039M330.046 200.479H265.054M384.29 189.87L395.039 200.479M384.29 189.87L372.804 178.535M384.29 189.87H451.432M395.039 200.479H460.031M265.054 200.479H200.062M265.054 200.479L279.169 210.43M460.031 200.479L451.432 189.87M279.169 210.43H216.193M372.804 178.535L360.506 166.396M372.804 178.535H442.244M451.432 189.87L442.244 178.535M442.244 178.535L432.405 166.396M288.607 166.396L272.765 153.366M288.607 166.396H360.506M288.607 166.396H216.708M360.506 166.396L347.304 153.366M360.506 166.396H432.405M432.405 166.396L421.844 153.366M272.765 153.366H347.304M272.765 153.366H198.226M333.096 139.343L347.304 153.366M333.096 139.343L317.761 124.208M333.096 139.343H410.477M347.304 153.366H421.844M198.226 153.366H123.687M198.226 153.366L216.708 166.396M421.844 153.366L410.477 139.343M216.708 166.396H144.809M317.761 124.208L301.161 107.823M317.761 124.208H398.209M410.477 139.343L398.209 124.208M398.209 124.208L384.929 107.823M217.393 107.823L195.758 90.0285M217.393 107.823H301.161M217.393 107.823H133.625M301.161 107.823L283.132 90.0285M301.161 107.823H384.929M384.929 107.823L370.505 90.0285M195.758 90.0285H283.132M195.758 90.0285H108.384M263.48 70.6329L283.132 90.0285M263.48 70.6329L241.977 49.4101M263.48 70.6329H354.784M283.132 90.0285H370.505M108.384 90.0285H21.0104M108.384 90.0285L133.625 107.823M370.505 90.0285L354.784 70.6329M133.625 107.823H49.8579M241.977 49.4101L218.349 26.089M241.977 49.4101H337.582M354.784 70.6329L337.582 49.4101M337.582 49.4101L318.679 26.089M118.019 26.089L86.7156 0.342329M118.019 26.089H218.349M118.019 26.089H17.6882M218.349 26.089L192.263 0.342329M218.349 26.089H318.679M318.679 26.089L297.81 0.342329M192.263 0.342329H86.7156M192.263 0.342329H297.81M86.7156 0.342329L0.387546 0.342783M17.6882 26.089L0.387546 13.8918M17.6882 26.089H0.387546M359.03 343.076L352.495 339.85M359.03 343.076H395.127M359.03 343.076H322.934M400.804 346.188L406.286 349.194M400.804 346.188L395.127 343.076M400.804 346.188H436.27M406.286 349.194H441.143M406.286 349.194L411.582 352.098M377.313 352.098H411.582M377.313 352.098L379.47 353.162L383.003 354.906M377.313 352.098H343.045M395.127 343.076L389.245 339.85M395.127 343.076H431.224M436.27 346.188L441.143 349.194M436.27 346.188L431.224 343.076M441.143 349.194L444.689 351.381L445.851 352.098M411.582 352.098L412.232 352.455L416.703 354.906M411.582 352.098H445.851M431.224 343.076L425.996 339.85M480.119 352.098L484.102 354.906M480.119 352.098H445.851M445.851 352.098L447.576 353.162L450.402 354.906M352.495 339.85H389.245M352.495 339.85H315.744M383.146 336.506L389.245 339.85M383.146 336.506L376.818 333.036M383.146 336.506H420.575M389.245 339.85H425.996M315.744 339.85H278.994M315.744 339.85L322.934 343.076M425.996 339.85L420.575 336.506M322.934 343.076H286.837M376.818 333.036L375.198 332.148L370.247 329.434M376.818 333.036H414.95M420.575 336.506L414.95 333.036M414.95 333.036L409.109 329.434M331.386 329.434L330.454 328.973L323.801 325.69M331.386 329.434H370.247M331.386 329.434H292.525M370.247 329.434L363.421 325.69M370.247 329.434H409.109M409.109 329.434L408.364 328.973L403.041 325.69M323.801 325.69H363.421M323.801 325.69H284.181M356.322 321.798L363.421 325.69M356.322 321.798L348.935 317.747M356.322 321.798H396.731M363.421 325.69H403.041M284.181 325.69H244.561M284.181 325.69L292.525 329.434M403.041 325.69L396.731 321.798M292.525 329.434H253.663M348.935 317.747L341.241 313.528M348.935 317.747H390.164M396.731 321.798L390.164 317.747M390.164 317.747L383.326 313.528M299.157 313.528L290.247 309.131M299.157 313.528H341.241M299.157 313.528H257.073M341.241 313.528L333.222 309.131M341.241 313.528H383.326M383.326 313.528L376.197 309.131M290.247 309.131H333.222M290.247 309.131H247.271M324.856 304.544L333.222 309.131M324.856 304.544L316.119 299.754M324.856 304.544H368.76M333.222 309.131H376.197M247.271 309.131H204.296M247.271 309.131L257.073 313.528M376.197 309.131L368.76 304.544M257.073 313.528H214.988M316.119 299.754L306.988 294.747M316.119 299.754H360.995M368.76 304.544L360.995 299.754M360.995 299.754L352.878 294.747M261.098 294.747L250.483 289.508M261.098 294.747H306.988M261.098 294.747H215.208M306.988 294.747L297.435 289.508M306.988 294.747H352.878M352.878 294.747L344.386 289.508M250.483 289.508H297.435M250.483 289.508H203.531M287.428 284.022L297.435 289.508M287.428 284.022L276.937 278.269M287.428 284.022H335.492M297.435 289.508H344.386M203.531 289.508H156.579M203.531 289.508L215.208 294.747M344.386 289.508L335.492 284.022M215.208 294.747H169.317M276.937 278.269L265.924 272.23M276.937 278.269H326.166M335.492 284.022L326.166 278.269M326.166 278.269L316.377 272.23M215.471 272.23L202.611 265.884M215.471 272.23H265.924M215.471 272.23H165.018M265.924 272.23L254.349 265.884M265.924 272.23H316.377M316.377 272.23L306.089 265.884M202.611 265.884H254.349M202.611 265.884H150.871M242.169 259.205L254.349 265.884M242.169 259.205L229.335 252.168M242.169 259.205H295.261M254.349 265.884H306.089M150.871 265.884H99.1326M150.871 265.884L165.018 272.23M306.089 265.884L295.261 259.205M165.018 272.23H114.565M229.335 252.168L215.792 244.742M229.335 252.168H283.853M295.261 259.205L283.853 252.168M283.853 252.168L271.816 244.742M159.769 244.742L143.868 236.895M159.769 244.742H215.792M159.769 244.742H103.746M215.792 244.742L201.481 236.895M215.792 244.742H271.816M271.816 244.742L259.094 236.895M143.868 236.895H201.481M143.868 236.895H86.2546M186.333 228.588L201.481 236.895M186.333 228.588L170.274 219.783M186.333 228.588H245.629M201.481 236.895H259.094M86.2546 236.895H28.6413M86.2546 236.895L103.746 244.742M259.094 236.895L245.629 228.588M103.746 244.742H47.7231M170.274 219.783L153.217 210.43M170.274 219.783H231.355M245.629 228.588L231.355 219.783M231.355 219.783L216.193 210.43M90.2417 210.43L70.0775 200.479M90.2417 210.43H153.217M90.2417 210.43H27.2658M153.217 210.43L135.07 200.479M153.217 210.43H216.193M216.193 210.43L200.062 200.479M70.0775 200.479H135.07M70.0775 200.479H5.08526M115.72 189.87L135.07 200.479M115.72 189.87L95.0481 178.535M115.72 189.87H182.863M135.07 200.479H200.062M5.08526 200.479L27.2658 210.43M5.08526 200.479H0.387546M5.08526 200.479L0.387546 198.372M200.062 200.479L182.863 189.87M27.2658 210.43H0.387546M95.0481 178.535L72.911 166.396M95.0481 178.535H164.487M182.863 189.87L164.487 178.535M164.487 178.535L144.809 166.396M1.01196 166.396H72.911M1.01196 166.396H0.387546M1.01196 166.396L0.387546 166.088M72.911 166.396L49.1473 153.366M72.911 166.396H144.809M144.809 166.396L123.687 153.366M23.5726 139.343L49.1473 153.366M23.5726 139.343H100.953M23.5726 139.343H0.387546M23.5726 139.343L0.387546 126.63M49.1473 153.366H123.687M49.1473 153.366H0.387546M123.687 153.366L100.953 139.343M100.953 139.343L76.4183 124.208M76.4183 124.208L49.8579 107.823M76.4183 124.208H0.387546M49.8579 107.823L21.0104 90.0285M49.8579 107.823H0.387546M21.0104 90.0285H0.387546M21.0104 90.0285L0.387546 77.3068M214.642 343.076L205.493 339.85M214.642 343.076H250.74M214.642 343.076H178.546M258.939 346.188L266.857 349.194M258.939 346.188L250.74 343.076M258.939 346.188H294.405M266.857 349.194H301.714M266.857 349.194L274.507 352.098M240.239 352.098H274.507M240.239 352.098L248.204 354.906M240.239 352.098H205.97M250.74 343.076L242.243 339.85M250.74 343.076H286.837M294.405 346.188L301.714 349.194M294.405 346.188L286.837 343.076M301.714 349.194L308.776 352.098M274.507 352.098L275.445 352.455L281.904 354.906M274.507 352.098H308.776M286.837 343.076L278.994 339.85M343.045 352.098L349.303 354.906M343.045 352.098H308.776M308.776 352.098L309.642 352.455L315.603 354.906M205.493 339.85H242.243M205.493 339.85H168.742M233.433 336.506L242.243 339.85M233.433 336.506L224.293 333.036M233.433 336.506H270.862M242.243 339.85H278.994M168.742 339.85H131.992M168.742 339.85L178.546 343.076M278.994 339.85L270.862 336.506M178.546 343.076H142.449M224.293 333.036L214.802 329.434M224.293 333.036H262.424M270.862 336.506L269.824 336.08L262.424 333.036M262.424 333.036L253.663 329.434M175.941 329.434L165.321 325.69M175.941 329.434H214.802M175.941 329.434H137.079M214.802 329.434L204.941 325.69M214.802 329.434H253.663M253.663 329.434L244.561 325.69M165.321 325.69H204.941M165.321 325.69H125.701M194.687 321.798L204.941 325.69M194.687 321.798L184.017 317.747M194.687 321.798H235.096M204.941 325.69H244.561M125.701 325.69H86.0814M125.701 325.69L137.079 329.434M244.561 325.69L235.096 321.798M137.079 329.434H98.2181M184.017 317.747L172.904 313.528M184.017 317.747H225.246M235.096 321.798L225.246 317.747M225.246 317.747L214.988 313.528M130.82 313.528L118.345 309.131M130.82 313.528H172.904M130.82 313.528H88.735M172.904 313.528L161.321 309.131M172.904 313.528H214.988M214.988 313.528L204.296 309.131M118.345 309.131H161.321M118.345 309.131H75.3697M149.236 304.544L161.321 309.131M149.236 304.544L136.617 299.754M149.236 304.544H193.141M161.321 309.131H204.296M75.3697 309.131H32.3946M75.3697 309.131L88.735 313.528M204.296 309.131L193.141 304.544M88.735 313.528H46.6511M136.617 299.754L123.427 294.747M136.617 299.754H181.492M193.141 304.544L181.492 299.754M181.492 299.754L169.317 294.747M77.5367 294.747L62.676 289.508M77.5367 294.747H123.427M77.5367 294.747H31.6472M123.427 294.747L109.628 289.508M123.427 294.747H169.317M169.317 294.747L156.579 289.508M62.676 289.508H109.628M95.174 284.022L109.628 289.508M95.174 284.022L80.0202 278.269M95.174 284.022H143.238M109.628 289.508H156.579M156.579 289.508L143.238 284.022M31.6472 294.747H0.387546M80.0202 278.269L64.1122 272.23M80.0202 278.269H129.249M143.238 284.022L129.249 278.269M129.249 278.269L114.565 272.23M13.6591 272.23H64.1122M13.6591 272.23H0.387546M13.6591 272.23L0.387546 267.552M64.1122 272.23L47.3932 265.884M64.1122 272.23H114.565M114.565 272.23L99.1326 265.884M29.8002 259.205L47.3932 265.884M29.8002 259.205L11.2619 252.168M29.8002 259.205H82.8926M29.8002 259.205H0.387546M47.3932 265.884H99.1326M47.3932 265.884H0.387546M99.1326 265.884L82.8926 259.205M0.241375 267.5L0.387546 267.552M11.2619 252.168H65.7801M11.2619 252.168H0.387546M11.2619 252.168L0.387546 248.04M82.8926 259.205L65.7801 252.168M65.7801 252.168L47.7231 244.742M47.7231 244.742L28.6413 236.895M47.7231 244.742H0.387546M8.44421 228.588L28.6413 236.895M8.44421 228.588H0.387546M8.44421 228.588L0.387546 225.275M28.6413 236.895H0.387546M70.2552 343.076L58.491 339.85M70.2552 343.076H106.352M70.2552 343.076H34.1576M117.074 346.188L127.428 349.194M117.074 346.188L106.352 343.076M117.074 346.188H152.541M127.428 349.194H162.285M127.428 349.194L137.433 352.098M103.164 352.098H137.433M103.164 352.098L113.405 354.906M103.164 352.098H68.8954M106.352 343.076L95.2415 339.85M106.352 343.076H142.449M152.541 346.188L162.285 349.194M152.541 346.188L142.449 343.076M162.285 349.194L171.701 352.098M137.433 352.098H171.701M137.433 352.098L147.105 354.906M142.449 343.076L131.992 339.85M205.97 352.098L214.504 354.906M205.97 352.098H171.701M171.701 352.098L180.805 354.906M58.491 339.85H95.2415M58.491 339.85H21.7405M83.7209 336.506L95.2415 339.85M83.7209 336.506L71.7679 333.036M83.7209 336.506H121.149M95.2415 339.85H131.992M21.7405 339.85L34.1576 343.076M21.7405 339.85H0.387546M131.992 339.85L121.149 336.506M34.1576 343.076H0.387546M71.7679 333.036L59.3568 329.434M71.7679 333.036H109.899M121.149 336.506L109.899 333.036M109.899 333.036L98.2181 329.434M20.4955 329.434L6.84156 325.69M20.4955 329.434H59.3568M20.4955 329.434H0.387546M59.3568 329.434L46.4615 325.69M59.3568 329.434H98.2181M98.2181 329.434L86.0814 325.69M33.0527 321.798L46.4615 325.69M33.0527 321.798L19.099 317.747M33.0527 321.798H73.4612M33.0527 321.798H0.387546M46.4615 325.69H6.84156M46.4615 325.69H86.0814M6.84156 325.69L0.387546 323.921M6.84156 325.69H0.387546M86.0814 325.69L73.4612 321.798M19.099 317.747L4.56654 313.528M19.099 317.747H60.3283M19.099 317.747H0.387546M73.4612 321.798L60.3283 317.747M60.3283 317.747L46.6511 313.528M4.56654 313.528H46.6511M4.56654 313.528L0.387546 312.316M4.56654 313.528H0.387546M46.6511 313.528L32.3946 309.131M17.5211 304.544L32.3946 309.131M17.5211 304.544L1.99018 299.754M17.5211 304.544H0.387546M32.3946 309.131H0.387546M0.162665 309.131H0.387546M1.99018 299.754H0.387546M1.99018 299.754L0.387546 299.259M0 299.14L0.387546 299.259M10.6758 346.188L22.8567 349.194M10.6758 346.188H0.387546M10.6758 346.188L0.387546 343.65M22.8567 349.194L34.6269 352.098M22.8567 349.194H0.387546M68.8954 352.098L79.7053 354.906M68.8954 352.098H34.6269M34.6269 352.098L46.0057 354.906M34.6269 352.098H0.387546M1191.8 354.906H1225.5M1191.8 354.906H1158.1M1217.24 357.622L1219.28 356.951L1225.5 354.906M1217.24 357.622H1250.39M1225.5 354.906H1259.2M1250.39 357.622L1252.56 356.951L1253.66 356.614L1259.2 354.906M1259.2 354.906H1292.89M1292.89 354.906H1326.6M1158.1 354.906H1124.4M1326.6 354.906H1360.29M1360.29 354.906L1349.84 357.622M1360.29 354.906H1393.99M1349.84 357.622H1382.99M1057 354.906H1090.7M1057 354.906H1023.3M1084.64 357.622L1086.14 356.951L1086.89 356.614L1090.7 354.906M1084.64 357.622H1117.79M1090.7 354.906H1124.4M1117.79 357.622L1124.4 354.906M1023.3 354.906H989.597M922.198 354.906H955.898M922.198 354.906H888.499M952.045 357.622L952.52 357.287L952.996 356.951L953.475 356.614L955.898 354.906M952.045 357.622H985.194M955.898 354.906H989.597M985.194 357.622L989.597 354.906M888.499 354.906H854.798M787.399 354.906H821.099M787.399 354.906H753.7M819.448 357.622L821.099 354.906M819.448 357.622H852.598M821.099 354.906H854.798M852.598 357.622L852.869 357.287L853.141 356.951L853.415 356.614L854.798 354.906M753.7 354.906H720M652.601 354.906H686.3M652.601 354.906H618.901M686.851 357.622L686.3 354.906M686.851 357.622H720M686.3 354.906H720M720 357.622V354.906M618.901 354.906H585.201M517.802 354.906H551.501M517.802 354.906H484.102M554.253 357.622L553.574 356.951L552.198 355.594L551.501 354.906M554.253 357.622H587.402M551.501 354.906H585.201M587.402 357.622L587.131 357.287L586.859 356.951L586.585 356.614L585.201 354.906M484.102 354.906H450.402M383.003 354.906H416.703M383.003 354.906H349.303M421.656 357.622L420.433 356.951L419.817 356.614L416.703 354.906M421.656 357.622H454.806M416.703 354.906H450.402M454.806 357.622L454.263 357.287L450.402 354.906M349.303 354.906H315.603M248.204 354.906H281.904M248.204 354.906H214.504M289.059 357.622L287.292 356.951L286.403 356.614L281.904 354.906M289.059 357.622H322.208M281.904 354.906H315.603M322.208 357.622L321.394 357.287L315.603 354.906M214.504 354.906H180.805M113.405 354.906H147.105M113.405 354.906H79.7053M156.461 357.622L147.105 354.906M156.461 357.622H189.61M147.105 354.906H180.805M189.61 357.622L187.437 356.951L186.342 356.614L180.805 354.906M79.7053 354.906H46.0057M23.8641 357.622L12.3061 354.906M23.8641 357.622H57.0136M23.8641 357.622H0.387546M12.3061 354.906H46.0057M12.3061 354.906L0.387546 352.105M12.3061 354.906H0.387546M57.0136 357.622L54.2955 356.951L46.0057 354.906M1382.99 357.622L1385.7 356.951L1393.99 354.906M1393.99 354.906H1427.69M1427.69 354.906L1439.61 352.105M1427.69 354.906H1439.61M1439.61 225.275V228.588M1439.61 225.275V219.783M1439.61 228.588V236.895M1439.61 219.783V218.142V210.43M1439.61 210.43V200.479M1439.61 289.508V294.747M1439.61 289.508V284.463M1439.61 357.622V354.906M1439.61 354.906V352.105M1439.61 352.105L1439.64 352.098H1439.61M1439.61 352.105V352.098M1439.61 352.098V349.194M1439.61 349.194V346.188M1439.61 346.188V343.65M1439.61 343.65V343.076M1439.61 343.076V339.85M1439.61 339.85V336.506M1439.61 336.506V334.305M1439.61 334.305V333.036M1439.61 333.036V329.434M1439.61 329.434V325.69M1439.61 325.69V323.921M1439.61 323.921V321.798M1439.61 321.798V317.747M1439.61 317.747V313.528M1439.61 313.528V312.316M1439.61 312.316V309.131M1439.61 309.131V304.544M1439.61 304.544V299.754M1439.61 299.754V299.259M1439.61 299.259V294.747M1439.61 284.022V278.269M1439.61 284.022V284.463M1439.61 278.269V272.23M1439.61 272.23V267.552M1439.61 267.552V265.884M1439.61 265.884V259.205M1439.61 259.205V252.168M1439.61 252.168V248.04M1439.61 248.04V244.742M1439.61 244.742V236.895M1439.61 200.479V198.372M1439.61 198.372V189.87M1439.61 189.87V178.535M1439.61 178.535V166.396M1439.61 166.396V166.088M1439.61 166.088V153.366M1439.61 153.366V139.343M1439.61 139.343V126.63M1439.61 126.63V124.208M1439.61 124.208V107.823M1439.61 107.823V90.0285M1439.61 90.0285V77.3068M1439.61 77.3068V70.6329M1439.61 70.6329V49.4101M1439.61 49.4101V26.089M1439.61 26.089V13.8918M1439.61 13.8918V0.342783M1439.61 0.342783V0.250857H0.387546V0.342783M0.387546 284.022V278.269M0.387546 284.022V284.463M0.387546 284.463V289.508M0.387546 289.508V294.747M0.387546 294.747V299.259M0.387546 299.259V299.754M0.387546 299.754V304.544M0.387546 304.544V309.131M0.387546 309.131V312.316M0.387546 312.316V313.528M0.387546 313.528V317.747M0.387546 317.747V321.798M0.387546 321.798V323.921M0.387546 323.921V325.69M0.387546 325.69V329.434M0.387546 329.434V333.036M0.387546 333.036V334.305M0.387546 334.305V336.506M0.387546 336.506V339.85M0.387546 339.85V343.076M0.387546 343.076V343.65M0.387546 343.65V346.188M0.387546 346.188V349.194M0.387546 349.194V352.098M0.387546 352.098H0.35831L0.387546 352.105M0.387546 352.098V352.105M0.387546 352.105V354.906M0.387546 354.906V357.622M0.387546 0.342783V13.8918M0.387546 13.8918V26.089M0.387546 26.089V49.4097M0.387546 49.4097V70.6329M0.387546 70.6329V77.3068M0.387546 77.3068V90.0285M0.387546 90.0285V107.823M0.387546 107.823V124.208M0.387546 124.208V126.63M0.387546 126.63V139.343M0.387546 139.343V153.366M0.387546 153.366V166.088M0.387546 166.088V166.396M0.387546 166.396V178.535M0.387546 178.535V189.87M0.387546 189.87V198.372M0.387546 198.372V200.479M0.387546 200.479V210.43M0.387546 210.43V219.783M0.387546 219.783V225.275M0.387546 225.275V228.588M0.387546 228.588V236.895M0.387546 236.895V244.742M0.387546 244.742V248.04M0.387546 248.04V252.168M0.387546 252.168V259.205M0.387546 259.205V265.884M0.387546 265.884V267.552M0.387546 267.552V272.23M0.387546 272.23V278.269" stroke="url(#paint0_linear_1543_93)" stroke-width="0.635087" stroke-miterlimit="10" stroke-linecap="round" stroke-linejoin="round"/>
<defs>
<linearGradient id="paint0_linear_1543_93" x1="720" y1="360.251" x2="720" y2="107.847" gradientUnits="userSpaceOnUse">
<stop stop-color="#222222" stop-opacity="0"/>
<stop offset="1" stop-color="#222222"/>
</linearGradient>
</defs>
</svg>
